<svg xmlns="http://www.w3.org/2000/svg" xmlns:xlink="http://www.w3.org/1999/xlink" viewBox="0 0 98.89 71.79"><defs><style>.cls-1{fill:none;}.cls-2{fill:#fff;}.cls-3,.cls-4{isolation:isolate;font-family:ArialMT, Arial;fill:url(#Point_mezzo-tinto_5);}.cls-3{font-size:60px;}.cls-4{font-size:59.53px;}</style><pattern id="Point_mezzo-tinto_5" data-name="Point mezzo-tinto 5" width="91.13" height="91.12" patternTransform="translate(6.23 -25.47)" patternUnits="userSpaceOnUse" viewBox="0 0 91.13 91.13"><rect class="cls-1" width="91.13" height="91.12"/><path class="cls-2" d="M79.1,93.77a1.67,1.67,0,0,1-1.19-.5,1.66,1.66,0,0,1-.5-1.19,1.7,1.7,0,0,1,.5-1.2,1.76,1.76,0,0,1,2.38,0,1.7,1.7,0,0,1,.5,1.2,1.67,1.67,0,0,1-.5,1.19A1.7,1.7,0,0,1,79.1,93.77Z"/><path class="cls-2" d="M45.5,94.44a1.69,1.69,0,0,1-1.69-1.69,1.67,1.67,0,0,1,.5-1.19,1.73,1.73,0,0,1,2.38,0,1.69,1.69,0,0,1-1.19,2.88Z"/><path class="cls-2" d="M92.71,16.56a1.68,1.68,0,0,1-1.19-2.88,1.75,1.75,0,0,1,2.39,0,1.71,1.71,0,0,1,.49,1.19,1.67,1.67,0,0,1-.5,1.19A1.66,1.66,0,0,1,92.71,16.56Z"/><path class="cls-2" d="M92.08,42.82a1.69,1.69,0,0,1-1.19-.49,1.71,1.71,0,0,1-.5-1.2,1.67,1.67,0,0,1,.5-1.19,1.73,1.73,0,0,1,2.38,0,1.69,1.69,0,0,1-1.19,2.88Z"/><path class="cls-2" d="M91.51,55.5a.88.88,0,0,1-.63-.26.88.88,0,0,1,0-1.23.9.9,0,0,1,1.24,0,.83.83,0,0,1,.26.61.85.85,0,0,1-.26.62A.87.87,0,0,1,91.51,55.5Z"/><path class="cls-2" d="M57.27,88a2.53,2.53,0,0,1-1.79-4.32,2.62,2.62,0,0,1,3.58,0A2.53,2.53,0,0,1,57.27,88Z"/><path class="cls-2" d="M24.25,76.91a2.51,2.51,0,0,1-1.79-.75,2.53,2.53,0,0,1,0-3.58,2.62,2.62,0,0,1,3.58,0,2.53,2.53,0,0,1,0,3.58A2.51,2.51,0,0,1,24.25,76.91Z"/><path class="cls-2" d="M72.14,77.52a2.53,2.53,0,0,1-1.79-4.32,2.61,2.61,0,0,1,3.58,0A2.54,2.54,0,0,1,74.67,75a2.53,2.53,0,0,1-2.53,2.53Z"/><path class="cls-2" d="M75,50.94a2.53,2.53,0,0,1-1.79-4.32,2.62,2.62,0,0,1,3.58,0A2.53,2.53,0,0,1,75,50.94Z"/><path class="cls-2" d="M57.9,34.49a2.51,2.51,0,0,1-1.79-.75,2.52,2.52,0,0,1,0-3.57,2.61,2.61,0,0,1,3.58,0,2.52,2.52,0,0,1,0,3.57A2.51,2.51,0,0,1,57.9,34.49Z"/><path class="cls-2" d="M13.6,39.23a2.58,2.58,0,0,1-1.79-.74,2.54,2.54,0,0,1-.74-1.79,2.58,2.58,0,0,1,.74-1.79,2.62,2.62,0,0,1,3.58,0,2.51,2.51,0,0,1,0,3.58A2.54,2.54,0,0,1,13.6,39.23Z"/><path class="cls-2" d="M18.35,57A2,2,0,0,1,17,53.66a2,2,0,0,1,2.78,0A2,2,0,0,1,18.35,57Z"/><path class="cls-2" d="M32.91,50.38A2,2,0,0,1,31.51,47a2,2,0,0,1,2.79,0,2,2,0,0,1-1.39,3.36Z"/><path class="cls-2" d="M23.1,22.15a2.54,2.54,0,0,1-2.54-2.53,2.51,2.51,0,0,1,.75-1.79,2.6,2.6,0,0,1,3.58,0,2.53,2.53,0,0,1,0,3.58A2.58,2.58,0,0,1,23.1,22.15Z"/><path class="cls-2" d="M32,36.14a2,2,0,0,1-1.4-3.36,2.05,2.05,0,0,1,2.79,0A2,2,0,0,1,32,36.14Z"/><path class="cls-2" d="M48.73,65.18a2.53,2.53,0,0,1-1.79-4.32,2.6,2.6,0,0,1,3.58,0,2.53,2.53,0,0,1,0,3.58A2.58,2.58,0,0,1,48.73,65.18Z"/><path class="cls-2" d="M57.9,50.94a2.53,2.53,0,0,1-1.79-4.32,2.62,2.62,0,0,1,3.58,0,2.53,2.53,0,0,1-1.79,4.32Z"/><path class="cls-2" d="M48.5,28.9a2.53,2.53,0,0,1-1.79-4.32,2.62,2.62,0,0,1,3.58,0A2.53,2.53,0,0,1,48.5,28.9Z"/><path class="cls-2" d="M34.8,24.68a2.53,2.53,0,0,1-2.53-2.53A2.54,2.54,0,0,1,33,20.36a2.6,2.6,0,0,1,3.58,0,2.53,2.53,0,0,1-1.79,4.32Z"/><path class="cls-2" d="M36.07,11.39a2.53,2.53,0,0,1-1.79-4.32,2.62,2.62,0,0,1,3.58,0,2.53,2.53,0,0,1-1.79,4.32Z"/><path class="cls-2" d="M57.58,7.91a2.53,2.53,0,0,1-1.79-4.32,2.62,2.62,0,0,1,3.58,0,2.53,2.53,0,0,1-1.79,4.32Z"/><path class="cls-2" d="M54.42,18.67a2.53,2.53,0,0,1-1.79-4.32,2.61,2.61,0,0,1,3.58,0,2.54,2.54,0,0,1-1.79,4.33Z"/><path class="cls-2" d="M80.68,9.81a2.53,2.53,0,0,1-1.79-4.32,2.62,2.62,0,0,1,3.58,0,2.51,2.51,0,0,1,.75,1.79,2.54,2.54,0,0,1-2.54,2.53Z"/><path class="cls-2" d="M68.66,22.78a2.53,2.53,0,0,1-1.79-4.32,2.61,2.61,0,0,1,3.58,0,2.53,2.53,0,0,1-1.79,4.32Z"/><path class="cls-2" d="M79.42,33.22a2.53,2.53,0,0,1-1.79-4.32,2.62,2.62,0,0,1,3.58,0,2.53,2.53,0,0,1-1.79,4.32Z"/><path class="cls-2" d="M84.48,65.18a2.53,2.53,0,0,1-1.79-4.32,2.6,2.6,0,0,1,3.58,0A2.54,2.54,0,0,1,87,62.65a2.53,2.53,0,0,1-2.53,2.53Z"/><path class="cls-2" d="M65.81,64.23A2.53,2.53,0,0,1,64,59.91a2.61,2.61,0,0,1,3.58,0,2.53,2.53,0,0,1-1.79,4.32Z"/><path class="cls-2" d="M38.28,85.11a2.58,2.58,0,0,1-1.79-.74,2.53,2.53,0,0,1,0-3.58,2.62,2.62,0,0,1,3.58,0,2.53,2.53,0,0,1-1.79,4.32Z"/><path class="cls-2" d="M37.65,62a2.53,2.53,0,0,1-1.79-4.32,2.62,2.62,0,0,1,3.58,0,2.58,2.58,0,0,1,.74,1.79A2.53,2.53,0,0,1,37.65,62Z"/><path class="cls-2" d="M11.39,69.92a2.53,2.53,0,0,1-2.53-2.53A2.58,2.58,0,0,1,9.6,65.6a2.62,2.62,0,0,1,3.58,0,2.58,2.58,0,0,1,.74,1.79,2.53,2.53,0,0,1-2.53,2.53Z"/><path class="cls-2" d="M9.17,53.29a1.43,1.43,0,0,1-1-.4,1.41,1.41,0,1,1,2.4-1,1.41,1.41,0,0,1-.41,1A1.39,1.39,0,0,1,9.17,53.29Z"/><path class="cls-2" d="M4.74,31A2.52,2.52,0,0,1,3,26.69a2.6,2.6,0,0,1,3.57,0A2.54,2.54,0,0,1,4.74,31Z"/><path class="cls-2" d="M5.69,10.76A2.54,2.54,0,0,1,3.16,8.22,2.58,2.58,0,0,1,3.9,6.43a2.62,2.62,0,0,1,3.58,0,2.58,2.58,0,0,1,.74,1.79A2.54,2.54,0,0,1,7.48,10,2.51,2.51,0,0,1,5.69,10.76Z"/><path class="cls-2" d="M13,19.93a2.53,2.53,0,0,1-1.79-4.32,2.62,2.62,0,0,1,3.58,0A2.53,2.53,0,0,1,13,19.93Z"/><path class="cls-2" d="M9.49,84.16A2.53,2.53,0,0,1,7.7,79.84a2.62,2.62,0,0,1,3.58,0,2.53,2.53,0,0,1-1.79,4.32Z"/><path class="cls-2" d="M25.63,88.91a2.53,2.53,0,0,1-1.79-4.32,2.6,2.6,0,0,1,3.58,0,2.53,2.53,0,0,1-1.79,4.32Z"/><path class="cls-2" d="M33.25,73.41a2.54,2.54,0,0,1-1.79-4.33,2.62,2.62,0,0,1,3.58,0,2.54,2.54,0,0,1-1.79,4.33Z"/><path class="cls-2" d="M24.36,44.61a2.53,2.53,0,0,1-1.79-4.32,2.62,2.62,0,0,1,3.58,0,2.53,2.53,0,0,1-1.79,4.32Z"/><path class="cls-2" d="M22.78,31A2.51,2.51,0,0,1,21,30.26a2.54,2.54,0,0,1-.74-1.78,2.59,2.59,0,0,1,.74-1.8,2.62,2.62,0,0,1,3.58,0,2.59,2.59,0,0,1,.74,1.8,2.54,2.54,0,0,1-.74,1.78A2.51,2.51,0,0,1,22.78,31Z"/><path class="cls-2" d="M69,39.87a2.55,2.55,0,0,1-1.79-.75,2.51,2.51,0,0,1-.75-1.79,2.55,2.55,0,0,1,.75-1.79,2.61,2.61,0,0,1,3.57,0,2.55,2.55,0,0,1,.75,1.79A2.56,2.56,0,0,1,69,39.87Z"/><path class="cls-2" d="M84.8,86.69A2.54,2.54,0,0,1,83,86a2.5,2.5,0,0,1-.74-1.79A2.54,2.54,0,0,1,83,82.37a2.61,2.61,0,0,1,3.57,0,2.52,2.52,0,0,1,0,3.58A2.58,2.58,0,0,1,84.8,86.69Z"/><path class="cls-2" d="M50.94,75.3A2.53,2.53,0,0,1,49.15,71a2.62,2.62,0,0,1,3.58,0,2.53,2.53,0,0,1-1.79,4.32Z"/><path class="cls-2" d="M21.2,13.61a2.51,2.51,0,0,1-1.79-.75,2.54,2.54,0,0,1-.74-1.79,2.58,2.58,0,0,1,.74-1.79,2.62,2.62,0,0,1,3.58,0,2.58,2.58,0,0,1,.74,1.79,2.54,2.54,0,0,1-2.53,2.54Z"/><path class="cls-2" d="M2.53,21.2a2.54,2.54,0,0,1-1.79-.74A2.58,2.58,0,0,1,0,18.67a2.54,2.54,0,0,1,.74-1.79,2.6,2.6,0,0,1,3.58,0,2.54,2.54,0,0,1,.74,1.79,2.58,2.58,0,0,1-.74,1.79A2.54,2.54,0,0,1,2.53,21.2Z"/><path class="cls-2" d="M43.35,17.72A2.54,2.54,0,0,1,41.56,17a2.53,2.53,0,0,1,0-3.58,2.6,2.6,0,0,1,3.57,0,2.51,2.51,0,0,1,.75,1.79,2.53,2.53,0,0,1-2.53,2.53Z"/><path class="cls-2" d="M46.51,8.86a2.53,2.53,0,0,1-1.79-4.32,2.61,2.61,0,0,1,3.58,0,2.53,2.53,0,0,1-1.79,4.32Z"/><path class="cls-2" d="M30.69,3.62a1.41,1.41,0,0,1-1-.41,1.44,1.44,0,0,1-.42-1,1.43,1.43,0,0,1,.41-1,1.44,1.44,0,0,1,2,0,1.39,1.39,0,0,1,0,2A1.41,1.41,0,0,1,30.69,3.62Z"/><path class="cls-2" d="M69.93,6a2.54,2.54,0,0,1-1.79-.74,2.51,2.51,0,0,1,0-3.58,2.62,2.62,0,0,1,3.58,0,2.53,2.53,0,0,1,0,3.58A2.58,2.58,0,0,1,69.93,6Z"/><path class="cls-2" d="M65.81,13.92A2.53,2.53,0,0,1,64,9.6a2.62,2.62,0,0,1,3.58,0,2.53,2.53,0,0,1-1.79,4.32Z"/><path class="cls-2" d="M80.68,20.25a2.53,2.53,0,0,1-2.53-2.53,2.54,2.54,0,0,1,.74-1.79,2.6,2.6,0,0,1,3.58,0,2.51,2.51,0,0,1,.75,1.79,2.54,2.54,0,0,1-2.54,2.53Z"/><path class="cls-2" d="M82.26,42.71a2.53,2.53,0,0,1-1.79-4.32,2.62,2.62,0,0,1,3.58,0,2.53,2.53,0,0,1-1.79,4.32Z"/><path class="cls-2" d="M10.76,5.69A2.53,2.53,0,0,1,8.23,3.16,2.58,2.58,0,0,1,9,1.37a2.61,2.61,0,0,1,3.57,0,2.55,2.55,0,0,1,.75,1.79A2.51,2.51,0,0,1,12.54,5,2.54,2.54,0,0,1,10.76,5.69Z"/><path class="cls-2" d="M13.92,12.65a2.53,2.53,0,0,1-2.53-2.53,2.58,2.58,0,0,1,.74-1.79,2.62,2.62,0,0,1,3.58,0,2.58,2.58,0,0,1,.74,1.79,2.53,2.53,0,0,1-2.53,2.53Z"/><path class="cls-2" d="M28.16,9.17a2.53,2.53,0,0,1-1.79-4.32,2.62,2.62,0,0,1,3.58,0,2.53,2.53,0,0,1-1.79,4.32Z"/><path class="cls-2" d="M30.37,17.72a2.53,2.53,0,0,1-2.53-2.53,2.54,2.54,0,0,1,.74-1.79,2.6,2.6,0,0,1,3.58,0,2.53,2.53,0,0,1-1.79,4.32Z"/><path class="cls-2" d="M41.45,5.38a2.54,2.54,0,0,1-1.79-.74,2.58,2.58,0,0,1-.74-1.79,2.54,2.54,0,0,1,.74-1.79,2.6,2.6,0,0,1,3.58,0,2.53,2.53,0,0,1,0,3.58A2.56,2.56,0,0,1,41.45,5.38Z"/><path class="cls-2" d="M61.07,24.68a2.54,2.54,0,0,1-1.79-.74,2.51,2.51,0,0,1,0-3.58,2.6,2.6,0,0,1,3.58,0,2.53,2.53,0,0,1-1.79,4.32Z"/><path class="cls-2" d="M70.56,31a2.54,2.54,0,0,1-1.79-.74,2.55,2.55,0,0,1,0-3.59,2.62,2.62,0,0,1,3.58,0,2.58,2.58,0,0,1,.74,1.79,2.54,2.54,0,0,1-.74,1.79A2.51,2.51,0,0,1,70.56,31Z"/><path class="cls-2" d="M65.18,36.7a2.53,2.53,0,0,1-1.79-4.32,2.62,2.62,0,0,1,3.58,0,2.53,2.53,0,0,1-1.79,4.32Z"/><path class="cls-2" d="M58.22,43.66a2.53,2.53,0,0,1-1.79-4.32,2.62,2.62,0,0,1,3.58,0,2.53,2.53,0,0,1-1.79,4.32Z"/><path class="cls-2" d="M50,39.87a2.53,2.53,0,0,1-1.79-4.32,2.61,2.61,0,0,1,3.58,0,2.57,2.57,0,0,1,.74,1.8A2.54,2.54,0,0,1,50,39.87Z"/><path class="cls-2" d="M39.75,27.91A2.51,2.51,0,0,1,38,27.16a2.53,2.53,0,0,1,0-3.58,2.62,2.62,0,0,1,3.58,0,2.54,2.54,0,0,1-1.79,4.33Z"/><path class="cls-2" d="M41.13,39.55a2.53,2.53,0,0,1-1.79-4.32,2.61,2.61,0,0,1,3.58,0,2.53,2.53,0,0,1-1.79,4.32Z"/><path class="cls-2" d="M51,33.9a2.53,2.53,0,0,1-1.79-4.32,2.62,2.62,0,0,1,3.58,0A2.53,2.53,0,0,1,51,33.9Z"/><path class="cls-2" d="M76.57,61.38a2.53,2.53,0,0,1-1.79-4.32,2.62,2.62,0,0,1,3.58,0,2.53,2.53,0,0,1-1.79,4.32Z"/><path class="cls-2" d="M67.4,48.09a2.53,2.53,0,0,1-1.8-4.32,2.62,2.62,0,0,1,3.58,0,2.53,2.53,0,0,1-1.78,4.32Z"/><path class="cls-2" d="M68.34,55.37a2.53,2.53,0,0,1-1.79-4.32,2.61,2.61,0,0,1,3.58,0,2.53,2.53,0,0,1-1.79,4.32Z"/><path class="cls-2" d="M57,59.17a2.53,2.53,0,0,1-1.79-4.32,2.6,2.6,0,0,1,3.58,0,2.54,2.54,0,0,1,.74,1.79,2.58,2.58,0,0,1-.74,1.79A2.54,2.54,0,0,1,57,59.17Z"/><path class="cls-2" d="M46.2,57a2.53,2.53,0,0,1-1.8-4.32,2.62,2.62,0,0,1,3.58,0,2.51,2.51,0,0,1,0,3.58A2.54,2.54,0,0,1,46.2,57Z"/><path class="cls-2" d="M40.5,51.26a2.51,2.51,0,0,1-1.79-.75,2.52,2.52,0,0,1,0-3.57,2.6,2.6,0,0,1,3.58,0,2.54,2.54,0,0,1-1.79,4.32Z"/><path class="cls-2" d="M34.8,40.18A2.58,2.58,0,0,1,33,39.44a2.53,2.53,0,0,1,0-3.58,2.62,2.62,0,0,1,3.58,0,2.53,2.53,0,0,1-1.79,4.32Z"/><path class="cls-2" d="M52.53,54.1a2.53,2.53,0,0,1-1.8-4.32,2.62,2.62,0,0,1,3.58,0,2.58,2.58,0,0,1,.74,1.79,2.53,2.53,0,0,1-2.52,2.53Z"/><path class="cls-2" d="M52.53,45.88a2.53,2.53,0,0,1-1.8-4.32,2.61,2.61,0,0,1,3.58,0,2.54,2.54,0,0,1,.74,1.79,2.58,2.58,0,0,1-.74,1.79A2.54,2.54,0,0,1,52.53,45.88Z"/><path class="cls-2" d="M81,72.77a2.53,2.53,0,0,1-1.79-4.32,2.62,2.62,0,0,1,3.58,0A2.53,2.53,0,0,1,81,72.77Z"/><path class="cls-2" d="M87,80.68a2.53,2.53,0,0,1-1.79-4.32,2.62,2.62,0,0,1,3.58,0A2.53,2.53,0,0,1,87,80.68Z"/><path class="cls-2" d="M71.51,84.8a2.51,2.51,0,0,1-1.79-.75A2.54,2.54,0,0,1,69,82.26a2.58,2.58,0,0,1,.74-1.79,2.62,2.62,0,0,1,3.58,0A2.58,2.58,0,0,1,74,82.26a2.54,2.54,0,0,1-2.53,2.54Z"/><path class="cls-2" d="M79.73,88.91a2.53,2.53,0,0,1-2.53-2.53,2.54,2.54,0,0,1,.74-1.79,2.62,2.62,0,0,1,3.58,0,2.55,2.55,0,0,1,.75,1.79,2.59,2.59,0,0,1-.75,1.79A2.54,2.54,0,0,1,79.73,88.91Z"/><path class="cls-2" d="M79.1,81a2.53,2.53,0,0,1-1.79-4.32,2.62,2.62,0,0,1,3.58,0,2.54,2.54,0,0,1,.74,1.79A2.53,2.53,0,0,1,79.1,81Z"/><path class="cls-2" d="M57.58,66.76a2.53,2.53,0,0,1-1.79-4.32,2.62,2.62,0,0,1,3.58,0,2.53,2.53,0,0,1-1.79,4.32Z"/><path class="cls-2" d="M63.28,81a2.53,2.53,0,0,1-1.79-4.32,2.62,2.62,0,0,1,3.58,0,2.54,2.54,0,0,1,.74,1.79,2.58,2.58,0,0,1-.74,1.79A2.54,2.54,0,0,1,63.28,81Z"/><path class="cls-2" d="M54.11,82.58a2.59,2.59,0,0,1-1.8-.74,2.53,2.53,0,0,1,0-3.58,2.62,2.62,0,0,1,3.58,0,2.53,2.53,0,0,1-1.78,4.32Z"/><path class="cls-2" d="M59.48,75A2.54,2.54,0,0,1,57,72.46a2.59,2.59,0,0,1,.74-1.8,2.64,2.64,0,0,1,3.58,0,2.59,2.59,0,0,1,.74,1.8,2.54,2.54,0,0,1-.74,1.78A2.51,2.51,0,0,1,59.48,75Z"/><path class="cls-2" d="M53.79,70.87A2.53,2.53,0,0,1,52,66.55a2.62,2.62,0,0,1,3.58,0,2.53,2.53,0,0,1-1.79,4.32Z"/><path class="cls-2" d="M67.08,71.51a2.51,2.51,0,0,1-1.79-.75,2.52,2.52,0,0,1,0-3.57,2.6,2.6,0,0,1,3.58,0,2.54,2.54,0,0,1-1.79,4.32Z"/><path class="cls-2" d="M74.67,67.39a2.53,2.53,0,0,1-1.79-4.32,2.62,2.62,0,0,1,3.58,0,2.58,2.58,0,0,1,.74,1.79,2.53,2.53,0,0,1-2.53,2.53Z"/><path class="cls-2" d="M44,71.51a2.51,2.51,0,0,1-1.79-.75A2.54,2.54,0,0,1,41.45,69a2.59,2.59,0,0,1,.74-1.8,2.62,2.62,0,0,1,3.58,0,2.59,2.59,0,0,1,.74,1.8,2.54,2.54,0,0,1-.74,1.78A2.51,2.51,0,0,1,44,71.51Z"/><path class="cls-2" d="M34.17,78.78a2.53,2.53,0,0,1-1.79-4.32,2.62,2.62,0,0,1,3.58,0,2.53,2.53,0,0,1-1.79,4.32Z"/><path class="cls-2" d="M44.61,77.2a2.53,2.53,0,0,1-1.79-4.32,2.62,2.62,0,0,1,3.58,0,2.53,2.53,0,0,1-1.79,4.32Z"/><path class="cls-2" d="M47.46,85.11a2.53,2.53,0,0,1-1.79-4.32,2.62,2.62,0,0,1,3.58,0,2.53,2.53,0,0,1-1.79,4.32Z"/><path class="cls-2" d="M29.74,82.9A2.53,2.53,0,0,1,28,78.58a2.61,2.61,0,0,1,3.58,0,2.53,2.53,0,0,1-1.79,4.32Z"/><path class="cls-2" d="M15.82,76.25A2.53,2.53,0,0,1,14,71.93a2.62,2.62,0,0,1,3.58,0,2.53,2.53,0,0,1-1.79,4.32Z"/><path class="cls-2" d="M19.93,82.58a2.53,2.53,0,0,1-1.79-4.32,2.62,2.62,0,0,1,3.58,0,2.53,2.53,0,0,1-1.79,4.32Z"/><path class="cls-2" d="M16.14,88.59a2.53,2.53,0,0,1-1.79-4.32,2.62,2.62,0,0,1,3.58,0,2.53,2.53,0,0,1-1.79,4.32Z"/><path class="cls-2" d="M9.49,91.19A2,2,0,0,1,8.1,87.83a2,2,0,0,1,2.78,0,2,2,0,0,1-1.39,3.36Z"/><path class="cls-2" d="M4.11,90.84A2.25,2.25,0,0,1,2.52,87,2.33,2.33,0,0,1,5.7,87a2.25,2.25,0,0,1-1.59,3.84Z"/><path class="cls-2" d="M6.64,77.2a2.53,2.53,0,0,1-1.79-4.32,2.62,2.62,0,0,1,3.58,0A2.53,2.53,0,0,1,6.64,77.2Z"/><path class="cls-2" d="M5.69,63.6a2.52,2.52,0,0,1-1.78-4.32,2.61,2.61,0,0,1,3.57,0,2.59,2.59,0,0,1,.74,1.8,2.54,2.54,0,0,1-.74,1.78A2.51,2.51,0,0,1,5.69,63.6Z"/><path class="cls-2" d="M21.2,67.71a2.53,2.53,0,0,1-1.79-4.32,2.62,2.62,0,0,1,3.58,0,2.53,2.53,0,0,1-1.79,4.32Z"/><path class="cls-2" d="M15.82,48.41A2.53,2.53,0,0,1,14,44.09a2.61,2.61,0,0,1,3.58,0,2.54,2.54,0,0,1,.74,1.79,2.58,2.58,0,0,1-.74,1.79A2.54,2.54,0,0,1,15.82,48.41Z"/><path class="cls-2" d="M6,39.86a2.53,2.53,0,0,1-1.79-4.32,2.62,2.62,0,0,1,3.58,0,2.58,2.58,0,0,1,.74,1.79A2.53,2.53,0,0,1,6,39.86Z"/><path class="cls-2" d="M8.23,43.66a2.54,2.54,0,0,1-1.79-.74,2.51,2.51,0,0,1,0-3.58,2.61,2.61,0,0,1,3.57,0,2.53,2.53,0,0,1-1.78,4.32Z"/><path class="cls-2" d="M4.11,51.57a2.53,2.53,0,0,1-1.79-4.32,2.62,2.62,0,0,1,3.58,0,2.53,2.53,0,0,1-1.79,4.32Z"/><path class="cls-2" d="M67.71,90.49a2.53,2.53,0,0,1-1.79-4.32,2.62,2.62,0,0,1,3.58,0,2.53,2.53,0,0,1-1.79,4.32Z"/><path class="cls-2" d="M47.15,91.44a2.52,2.52,0,0,1-1.79-4.32,2.61,2.61,0,0,1,3.57,0,2.53,2.53,0,0,1-1.78,4.32Z"/><path class="cls-2" d="M32.91,92.39a2.53,2.53,0,0,1-2.54-2.53,2.54,2.54,0,0,1,.74-1.79,2.62,2.62,0,0,1,3.58,0,2.51,2.51,0,0,1,0,3.58A2.54,2.54,0,0,1,32.91,92.39Z"/><path class="cls-2" d="M32.27,87.64a2.53,2.53,0,0,1-1.79-4.32,2.62,2.62,0,0,1,3.58,0,2.53,2.53,0,0,1-1.79,4.32Z"/><path class="cls-2" d="M54.74,26.26A2.53,2.53,0,0,1,53,21.94a2.62,2.62,0,0,1,3.58,0,2.53,2.53,0,0,1-1.79,4.32Z"/><path class="cls-2" d="M12.66,26.89a2.54,2.54,0,0,1-1.79-.74,2.51,2.51,0,0,1,0-3.58,2.61,2.61,0,0,1,3.57,0,2.51,2.51,0,0,1,0,3.58A2.54,2.54,0,0,1,12.66,26.89Z"/><path class="cls-2" d="M7.44,34a2.53,2.53,0,0,1-1.79-4.32,2.6,2.6,0,0,1,3.58,0A2.54,2.54,0,0,1,10,31.51a2.58,2.58,0,0,1-.74,1.79A2.54,2.54,0,0,1,7.44,34Z"/><path class="cls-2" d="M22.75,34.4A2.53,2.53,0,0,1,21,30.08a2.62,2.62,0,0,1,3.58,0,2.53,2.53,0,0,1-1.79,4.32Z"/><path class="cls-2" d="M48.73,21.52a2.51,2.51,0,0,1-1.79-.75,2.53,2.53,0,0,1,0-3.58,2.62,2.62,0,0,1,3.58,0,2.54,2.54,0,0,1-1.79,4.33Z"/><path class="cls-2" d="M30.06,29.74a2.53,2.53,0,0,1-1.79-4.32,2.61,2.61,0,0,1,3.58,0,2.53,2.53,0,0,1-1.79,4.32Z"/><path class="cls-2" d="M50.94,13a2.53,2.53,0,0,1-1.79-4.32,2.62,2.62,0,0,1,3.58,0A2.53,2.53,0,0,1,50.94,13Z"/><path class="cls-2" d="M58.54,14.24A2.53,2.53,0,0,1,56,11.71a2.54,2.54,0,0,1,.74-1.79,2.6,2.6,0,0,1,3.58,0,2.55,2.55,0,0,1,.75,1.79,2.59,2.59,0,0,1-.75,1.79A2.54,2.54,0,0,1,58.54,14.24Z"/><path class="cls-2" d="M50.62,5.06a2.58,2.58,0,0,1-1.79-.74,2.53,2.53,0,0,1,0-3.58,2.62,2.62,0,0,1,3.58,0,2.51,2.51,0,0,1,0,3.58A2.54,2.54,0,0,1,50.62,5.06Z"/><path class="cls-2" d="M64.23,7.28a2.54,2.54,0,0,1-1.79-.74,2.59,2.59,0,0,1-.74-1.8A2.54,2.54,0,0,1,62.44,3,2.61,2.61,0,0,1,66,3a2.54,2.54,0,0,1,.74,1.78A2.59,2.59,0,0,1,66,6.54,2.54,2.54,0,0,1,64.23,7.28Z"/><path class="cls-2" d="M75,13.6A2.53,2.53,0,0,1,73.2,9.28a2.62,2.62,0,0,1,3.58,0,2.58,2.58,0,0,1,.74,1.79A2.53,2.53,0,0,1,75,13.6Z"/><path class="cls-2" d="M76.57,26A2.54,2.54,0,0,1,74,23.41a2.58,2.58,0,0,1,.74-1.79,2.62,2.62,0,0,1,3.58,0,2.58,2.58,0,0,1,.74,1.79,2.54,2.54,0,0,1-.74,1.79A2.51,2.51,0,0,1,76.57,26Z"/><path class="cls-2" d="M75,37a2.54,2.54,0,0,1-1.79-.74,2.58,2.58,0,0,1-.74-1.79,2.54,2.54,0,0,1,.74-1.79,2.61,2.61,0,0,1,3.58,0,2.54,2.54,0,0,1,.74,1.79,2.58,2.58,0,0,1-.74,1.79A2.54,2.54,0,0,1,75,37Z"/><path class="cls-2" d="M74.36,43a2.54,2.54,0,0,1-1.79-.74,2.51,2.51,0,0,1,0-3.58,2.61,2.61,0,0,1,3.57,0A2.53,2.53,0,0,1,74.36,43Z"/><path class="cls-2" d="M81,55.37a2.53,2.53,0,0,1-1.79-4.32,2.6,2.6,0,0,1,3.58,0A2.53,2.53,0,0,1,81,55.37Z"/><path class="cls-2" d="M89,57.75a1.6,1.6,0,0,1-1.15-.48,1.64,1.64,0,0,1-.48-1.15,1.63,1.63,0,0,1,3.26,0,1.64,1.64,0,0,1-.48,1.15A1.62,1.62,0,0,1,89,57.75Z"/><path class="cls-2" d="M86.7,30.85a2.52,2.52,0,0,1-1.79-4.32,2.61,2.61,0,0,1,3.57,0,2.53,2.53,0,0,1-1.78,4.32Z"/><path class="cls-2" d="M84.48,27.21a2.53,2.53,0,0,1-1.79-4.32,2.62,2.62,0,0,1,3.58,0,2.53,2.53,0,0,1-1.79,4.32Z"/><path class="cls-2" d="M88,16.77a2.53,2.53,0,0,1-1.79-4.32,2.61,2.61,0,0,1,3.58,0A2.53,2.53,0,0,1,88,16.77Z"/><path class="cls-2" d="M86.7,5.7A2.55,2.55,0,0,1,84.91,5a2.51,2.51,0,0,1,0-3.58,2.61,2.61,0,0,1,3.57,0A2.54,2.54,0,0,1,86.7,5.7Z"/><path class="cls-2" d="M20.69,90.56a2.53,2.53,0,0,1-1.79-4.32,2.62,2.62,0,0,1,3.58,0,2.53,2.53,0,0,1-1.79,4.32Z"/><path class="cls-2" d="M41.76,89.22A2.58,2.58,0,0,1,40,88.48a2.52,2.52,0,0,1,0-3.57,2.6,2.6,0,0,1,3.58,0,2.5,2.5,0,0,1,0,3.57A2.54,2.54,0,0,1,41.76,89.22Z"/><path class="cls-2" d="M75.62,91.76a2.53,2.53,0,0,1-2.53-2.54,2.52,2.52,0,0,1,.74-1.78,2.6,2.6,0,0,1,3.58,0,2.54,2.54,0,0,1,.74,1.78,2.59,2.59,0,0,1-.74,1.8A2.54,2.54,0,0,1,75.62,91.76Z"/><path class="cls-2" d="M85.43,35.54a1.69,1.69,0,0,1-1.69-1.69,1.67,1.67,0,0,1,.5-1.19,1.74,1.74,0,0,1,2.38,0,1.67,1.67,0,0,1,.5,1.19,1.69,1.69,0,0,1-1.69,1.69Z"/><path class="cls-2" d="M74.67,67.18a1.68,1.68,0,0,1-1.19-2.88,1.74,1.74,0,0,1,2.38,0,1.69,1.69,0,0,1-1.19,2.88Z"/><path class="cls-2" d="M48.41,17.82a1.71,1.71,0,0,1-1.19-.49,1.67,1.67,0,0,1-.5-1.19,1.73,1.73,0,0,1,.49-1.2,1.75,1.75,0,0,1,2.39,0,1.68,1.68,0,0,1,0,2.39A1.72,1.72,0,0,1,48.41,17.82Z"/><path class="cls-2" d="M30.37,35.23a1.69,1.69,0,0,1-1.19-2.88,1.74,1.74,0,0,1,2.39,0,1.69,1.69,0,0,1-1.2,2.88Z"/><path class="cls-2" d="M36.7,79.2A1.69,1.69,0,0,1,35,77.52a1.67,1.67,0,0,1,.5-1.19,1.75,1.75,0,0,1,2.39,0,1.73,1.73,0,0,1,.49,1.2A1.69,1.69,0,0,1,36.7,79.2Z"/><path class="cls-2" d="M55.05,74.46a1.67,1.67,0,0,1-1.19-.5,1.7,1.7,0,0,1-.5-1.19,1.67,1.67,0,0,1,.5-1.19,1.75,1.75,0,0,1,2.39,0,1.69,1.69,0,0,1-1.2,2.88Z"/><path class="cls-2" d="M48.41,59.91a1.72,1.72,0,0,1-1.19-.5,1.67,1.67,0,0,1-.5-1.19,1.73,1.73,0,0,1,.49-1.2,1.76,1.76,0,0,1,2.39,0,1.68,1.68,0,0,1,0,2.39A1.67,1.67,0,0,1,48.41,59.91Z"/><path class="cls-2" d="M19.62,69.71a1.73,1.73,0,0,1-1.2-.49A1.71,1.71,0,0,1,17.93,68a1.73,1.73,0,0,1,.49-1.2,1.77,1.77,0,0,1,2.39,0A1.73,1.73,0,0,1,21.3,68a1.71,1.71,0,0,1-.49,1.19A1.72,1.72,0,0,1,19.62,69.71Z"/><path class="cls-2" d="M34.17,60.85a1.69,1.69,0,0,1-1.69-1.68A1.73,1.73,0,0,1,33,58a1.75,1.75,0,0,1,2.39,0,1.69,1.69,0,0,1-1.19,2.88Z"/><path class="cls-2" d="M62.65,44.08a1.69,1.69,0,0,1-1.2-.49,1.7,1.7,0,0,1,0-2.39,1.76,1.76,0,0,1,2.39,0,1.69,1.69,0,0,1-1.19,2.88Z"/><path class="cls-2" d="M48.41,34.91a1.71,1.71,0,0,1-1.69-1.69A1.71,1.71,0,0,1,47.21,32a1.75,1.75,0,0,1,2.39,0,1.69,1.69,0,0,1-1.19,2.88Z"/><path class="cls-2" d="M25,45.67a1.67,1.67,0,0,1-1.19-.5A1.71,1.71,0,0,1,23.31,44a1.69,1.69,0,0,1,.49-1.19,1.75,1.75,0,0,1,2.39,0A1.69,1.69,0,0,1,26.68,44,1.69,1.69,0,0,1,25,45.67Z"/><path class="cls-2" d="M22.15,58A1.69,1.69,0,0,1,21,55.13a1.75,1.75,0,0,1,2.39,0,1.67,1.67,0,0,1,0,2.38A1.69,1.69,0,0,1,22.15,58Z"/><path class="cls-2" d="M8.86,56.74a1.69,1.69,0,0,1-1.2-2.88,1.75,1.75,0,0,1,2.39,0,1.69,1.69,0,0,1-1.19,2.88Z"/><path class="cls-2" d="M18.35,36.49a1.69,1.69,0,0,1-1.69-1.69,1.67,1.67,0,0,1,.5-1.19,1.73,1.73,0,0,1,2.38,0A1.67,1.67,0,0,1,20,34.8a1.69,1.69,0,0,1-1.69,1.69Z"/><path class="cls-2" d="M7.28,12.13a1.69,1.69,0,0,1-1.2-2.88,1.75,1.75,0,0,1,2.39,0,1.69,1.69,0,0,1,0,2.38A1.67,1.67,0,0,1,7.28,12.13Z"/><path class="cls-2" d="M20.25,24.15a1.69,1.69,0,0,1-1.2-2.88,1.75,1.75,0,0,1,2.39,0,1.69,1.69,0,0,1-1.19,2.88Z"/><path class="cls-2" d="M30.69,13.39A1.69,1.69,0,0,1,29,11.7a1.67,1.67,0,0,1,.5-1.19,1.73,1.73,0,0,1,2.38,0,1.69,1.69,0,0,1-1.19,2.88Z"/><path class="cls-2" d="M62.65,8.33a1.73,1.73,0,0,1-1.2-.49A1.75,1.75,0,0,1,61,6.64a1.71,1.71,0,0,1,.49-1.19,1.75,1.75,0,0,1,2.39,0,1.67,1.67,0,0,1,.5,1.19,1.69,1.69,0,0,1-1.69,1.69Z"/><path class="cls-2" d="M61.7,27a1.67,1.67,0,0,1-1.19-.5,1.66,1.66,0,0,1-.5-1.19,1.71,1.71,0,0,1,.49-1.19,1.75,1.75,0,0,1,2.39,0A1.69,1.69,0,0,1,61.7,27Z"/><path class="cls-2" d="M82.58,54.53a1.69,1.69,0,0,1-1.68-1.69,1.65,1.65,0,0,1,.49-1.19,1.75,1.75,0,0,1,2.39,0,1.69,1.69,0,0,1,.49,1.19,1.69,1.69,0,0,1-1.69,1.69Z"/><path class="cls-2" d="M59.48,55.16a1.72,1.72,0,0,1-1.19-.49,1.75,1.75,0,0,1-.49-1.2,1.71,1.71,0,0,1,.49-1.19,1.75,1.75,0,0,1,2.39,0,1.69,1.69,0,0,1-1.2,2.88Z"/><path class="cls-2" d="M67.39,81.42a1.69,1.69,0,0,1-1.19-2.88,1.75,1.75,0,0,1,2.39,0,1.69,1.69,0,0,1-1.2,2.88Z"/><path class="cls-2" d="M51.89,83.64a1.68,1.68,0,0,1-1.19-2.88,1.74,1.74,0,0,1,2.38,0,1.71,1.71,0,0,1,.5,1.2,1.69,1.69,0,0,1-.5,1.19A1.67,1.67,0,0,1,51.89,83.64Z"/><path class="cls-2" d="M28.48,88.07a1.69,1.69,0,0,1-1.69-1.69,1.73,1.73,0,0,1,.49-1.2,1.69,1.69,0,0,1,2.88,1.2,1.69,1.69,0,0,1-1.68,1.69Z"/><path class="cls-2" d="M8.23,87.12A1.69,1.69,0,0,1,7,84.24a1.75,1.75,0,0,1,2.39,0,1.69,1.69,0,0,1-1.19,2.88Z"/><path class="cls-2" d="M3.16,72.56A1.71,1.71,0,0,1,2,72.07a1.74,1.74,0,0,1-.5-1.2A1.72,1.72,0,0,1,2,69.68a1.75,1.75,0,0,1,2.39,0,1.71,1.71,0,0,1,.49,1.19,1.73,1.73,0,0,1-.49,1.2A1.73,1.73,0,0,1,3.16,72.56Z"/><path class="cls-2" d="M17.4,79.84A1.68,1.68,0,0,1,16.21,77a1.73,1.73,0,0,1,2.38,0,1.67,1.67,0,0,1,.5,1.19,1.71,1.71,0,0,1-1.69,1.69Z"/><path class="cls-2" d="M81.63,83.32a1.68,1.68,0,0,1-1.19-2.88,1.75,1.75,0,0,1,2.39,0,1.69,1.69,0,0,1,0,2.39A1.69,1.69,0,0,1,81.63,83.32Z"/><path class="cls-2" d="M86.38,67.18a1.68,1.68,0,0,1-1.19-2.88,1.74,1.74,0,0,1,2.38,0,1.68,1.68,0,0,1,0,2.39A1.71,1.71,0,0,1,86.38,67.18Z"/><path class="cls-2" d="M61.7,64a1.66,1.66,0,0,1-1.19-.5,1.67,1.67,0,0,1-.5-1.19,1.71,1.71,0,0,1,.49-1.19,1.75,1.75,0,0,1,2.39,0A1.69,1.69,0,0,1,61.7,64Z"/><path class="cls-2" d="M42.08,68.45a1.67,1.67,0,0,1-1.19-.5,1.66,1.66,0,0,1-.5-1.19,1.67,1.67,0,0,1,.5-1.19,1.75,1.75,0,0,1,2.39,0,1.71,1.71,0,0,1,.49,1.19,1.67,1.67,0,0,1-.5,1.19A1.66,1.66,0,0,1,42.08,68.45Z"/><path class="cls-2" d="M28.48,70a1.69,1.69,0,0,1-1.2-2.88,1.75,1.75,0,0,1,2.39,0,1.71,1.71,0,0,1,.49,1.19,1.73,1.73,0,0,1-.49,1.2A1.71,1.71,0,0,1,28.48,70Z"/><path class="cls-2" d="M37.33,23.83a1.67,1.67,0,0,1-1.68-1.68,1.73,1.73,0,0,1,.49-1.2A1.69,1.69,0,0,1,39,22.15a1.71,1.71,0,0,1-.49,1.19A1.73,1.73,0,0,1,37.33,23.83Z"/><path class="cls-2" d="M84.16,8a1.67,1.67,0,0,1-1.68-1.68A1.69,1.69,0,0,1,83,5.14a1.74,1.74,0,0,1,2.39,0A1.69,1.69,0,0,1,84.16,8Z"/><path class="cls-2" d="M72.77,41.87a1.67,1.67,0,0,1-1.68-1.69A1.71,1.71,0,0,1,71.58,39,1.75,1.75,0,0,1,74,39a1.71,1.71,0,0,1,.49,1.19,1.67,1.67,0,0,1-1.69,1.69Z"/><path class="cls-2" d="M11.07,71.61a1.71,1.71,0,0,1-1.19-.49,1.7,1.7,0,0,1,0-2.39,1.75,1.75,0,0,1,2.39,0,1.69,1.69,0,0,1-1.2,2.88Z"/><path class="cls-2" d="M15.19,49.46A1.73,1.73,0,0,1,14,49a1.71,1.71,0,0,1-.49-1.19,1.73,1.73,0,0,1,.49-1.2,1.76,1.76,0,0,1,2.39,0,1.73,1.73,0,0,1,.49,1.2,1.67,1.67,0,0,1-1.68,1.68Z"/><path class="cls-2" d="M6.33,46.3a1.67,1.67,0,0,1-1.69-1.69,1.71,1.71,0,0,1,.49-1.19,1.75,1.75,0,0,1,2.39,0A1.72,1.72,0,0,1,8,44.61a1.74,1.74,0,0,1-.5,1.2A1.71,1.71,0,0,1,6.33,46.3Z"/><path class="cls-2" d="M2.21,62.12A1.71,1.71,0,0,1,1,61.63a1.73,1.73,0,0,1-.49-1.2A1.71,1.71,0,0,1,1,59.24a1.75,1.75,0,0,1,2.39,0,1.71,1.71,0,0,1,.49,1.19,1.73,1.73,0,0,1-.49,1.2A1.73,1.73,0,0,1,2.21,62.12Z"/><path class="cls-2" d="M3.48,22.89A1.71,1.71,0,0,1,1.79,21.2a1.7,1.7,0,0,1,.5-1.2,1.74,1.74,0,0,1,2.38,0,1.71,1.71,0,0,1,.5,1.2,1.71,1.71,0,0,1-1.69,1.69Z"/><path class="cls-2" d="M11.39,27A1.69,1.69,0,0,1,9.7,25.31a1.67,1.67,0,0,1,.5-1.19,1.73,1.73,0,0,1,2.38,0,1.67,1.67,0,0,1,.5,1.19A1.69,1.69,0,0,1,11.39,27Z"/><path class="cls-2" d="M18.75,11.81a1.68,1.68,0,0,1-1.19-2.88,1.73,1.73,0,0,1,2.38,0,1.67,1.67,0,0,1,.5,1.19,1.69,1.69,0,0,1-1.69,1.69Z"/><path class="cls-2" d="M50.94,7.07a1.69,1.69,0,0,1-1.19-.5,1.67,1.67,0,0,1-.5-1.19,1.7,1.7,0,0,1,.5-1.2,1.76,1.76,0,0,1,2.38,0,1.71,1.71,0,0,1,.5,1.2,1.71,1.71,0,0,1-1.69,1.69Z"/><path class="cls-2" d="M40.18,10.55A1.68,1.68,0,0,1,39,7.67a1.68,1.68,0,0,1,2.88,1.19,1.67,1.67,0,0,1-.5,1.19A1.66,1.66,0,0,1,40.18,10.55Z"/><path class="cls-2" d="M3.16,82.05a1.69,1.69,0,0,1-1.69-1.68,1.74,1.74,0,0,1,.5-1.2,1.76,1.76,0,0,1,2.39,0,1.7,1.7,0,0,1,0,2.39A1.73,1.73,0,0,1,3.16,82.05Z"/><path class="cls-2" d="M10.12,78.89a1.71,1.71,0,0,1-1.19-.49,1.73,1.73,0,0,1-.49-1.2A1.71,1.71,0,0,1,8.93,76a1.75,1.75,0,0,1,2.39,0,1.71,1.71,0,0,1,.49,1.19,1.67,1.67,0,0,1-1.69,1.69Z"/><path class="cls-2" d="M6.64,64.65a1.71,1.71,0,0,1-1.19-.49,1.7,1.7,0,0,1,0-2.39,1.75,1.75,0,0,1,2.39,0,1.69,1.69,0,0,1-1.2,2.88Z"/><path class="cls-2" d="M15.19,62.44A1.69,1.69,0,0,1,14,59.56a1.75,1.75,0,0,1,2.39,0,1.69,1.69,0,0,1,0,2.38A1.67,1.67,0,0,1,15.19,62.44Z"/><path class="cls-2" d="M2.85,51.36a1.67,1.67,0,0,1-1.69-1.68,1.73,1.73,0,0,1,.49-1.2,1.75,1.75,0,0,1,2.39,0,1.7,1.7,0,0,1,0,2.39A1.72,1.72,0,0,1,2.85,51.36Z"/><path class="cls-2" d="M38.75,30.81a1.69,1.69,0,0,1-1.69-1.69,1.67,1.67,0,0,1,.5-1.19,1.73,1.73,0,0,1,2.38,0,1.69,1.69,0,0,1-1.19,2.88Z"/><path class="cls-2" d="M28.48,22.25a1.69,1.69,0,0,1-1.2-2.88,1.75,1.75,0,0,1,2.39,0,1.7,1.7,0,0,1,0,2.39A1.71,1.71,0,0,1,28.48,22.25Z"/><path class="cls-2" d="M34.17,27.63a1.69,1.69,0,0,1-1.69-1.69A1.72,1.72,0,0,1,33,24.75a1.75,1.75,0,0,1,2.39,0,1.69,1.69,0,0,1-1.19,2.88Z"/><path class="cls-2" d="M41.13,34.59a1.71,1.71,0,0,1-1.19-.49,1.67,1.67,0,0,1-.5-1.19,1.7,1.7,0,0,1,.5-1.2,1.73,1.73,0,0,1,2.38,0,1.69,1.69,0,0,1-1.19,2.88Z"/><path class="cls-2" d="M37.33,42.82a1.72,1.72,0,0,1-1.19-.49,1.75,1.75,0,0,1-.49-1.2,1.71,1.71,0,0,1,.49-1.19,1.75,1.75,0,0,1,2.39,0,1.69,1.69,0,0,1-1.2,2.88Z"/><path class="cls-2" d="M28.79,53.89a1.69,1.69,0,0,1-1.69-1.68,1.68,1.68,0,0,1,.5-1.2A1.76,1.76,0,0,1,30,51a1.73,1.73,0,0,1,.49,1.2,1.69,1.69,0,0,1-1.69,1.68Z"/><path class="cls-2" d="M37,51.68A1.69,1.69,0,0,1,35.33,50a1.67,1.67,0,0,1,.5-1.19,1.73,1.73,0,0,1,2.38,0,1.67,1.67,0,0,1,.5,1.19,1.66,1.66,0,0,1-.5,1.19A1.67,1.67,0,0,1,37,51.68Z"/><path class="cls-2" d="M31.32,42.82a1.67,1.67,0,0,1-1.19-.5,1.69,1.69,0,0,1,0-2.38,1.75,1.75,0,0,1,2.39,0A1.72,1.72,0,0,1,33,41.13a1.69,1.69,0,0,1-1.69,1.69Z"/><path class="cls-2" d="M58.85,16.24a1.68,1.68,0,0,1-1.19-2.88,1.73,1.73,0,0,1,2.38,0,1.69,1.69,0,0,1-1.19,2.88Z"/><path class="cls-2" d="M45.56,25.42a1.68,1.68,0,0,1-1.19-2.88,1.74,1.74,0,0,1,2.38,0,1.69,1.69,0,0,1-1.19,2.89Z"/><path class="cls-2" d="M52.84,24.47a1.67,1.67,0,0,1-1.19-.5,1.66,1.66,0,0,1-.5-1.19,1.71,1.71,0,0,1,.49-1.19,1.75,1.75,0,0,1,2.39,0A1.67,1.67,0,0,1,54,24,1.69,1.69,0,0,1,52.84,24.47Z"/><path class="cls-2" d="M56.64,35.86A1.69,1.69,0,0,1,55.44,33a1.75,1.75,0,0,1,2.39,0,1.69,1.69,0,0,1,0,2.38A1.67,1.67,0,0,1,56.64,35.86Z"/><path class="cls-2" d="M54.42,46.62a1.67,1.67,0,0,1-1.19-.5,1.67,1.67,0,0,1,0-2.38,1.73,1.73,0,0,1,2.38,0,1.66,1.66,0,0,1,.5,1.19,1.71,1.71,0,0,1-1.69,1.69Z"/><path class="cls-2" d="M48.73,52.31A1.67,1.67,0,0,1,47,50.62a1.71,1.71,0,0,1,.49-1.19,1.75,1.75,0,0,1,2.39,0,1.71,1.71,0,0,1,.49,1.19,1.67,1.67,0,0,1-1.68,1.69Z"/><path class="cls-2" d="M41.76,56.42a1.69,1.69,0,0,1-1.19-2.88,1.77,1.77,0,0,1,2.39,0,1.69,1.69,0,0,1-1.2,2.88Z"/><path class="cls-2" d="M51.57,40.29a1.69,1.69,0,0,1-1.19-2.88,1.75,1.75,0,0,1,2.39,0,1.69,1.69,0,0,1-1.2,2.88Z"/><path class="cls-2" d="M43.35,40.29a1.69,1.69,0,0,1-1.2-2.88,1.75,1.75,0,0,1,2.39,0,1.69,1.69,0,0,1-1.19,2.88Z"/><path class="cls-2" d="M70.24,11.81a1.69,1.69,0,0,1-1.69-1.69,1.67,1.67,0,0,1,.5-1.19,1.73,1.73,0,0,1,2.38,0,1.67,1.67,0,0,1,.5,1.19,1.69,1.69,0,0,1-1.69,1.69Z"/><path class="cls-2" d="M78.15,5.8a1.69,1.69,0,0,1-1.69-1.69A1.67,1.67,0,0,1,77,2.92a1.73,1.73,0,0,1,2.38,0,1.67,1.67,0,0,1,.5,1.19A1.69,1.69,0,0,1,78.15,5.8Z"/><path class="cls-2" d="M82.26,21.3a1.69,1.69,0,0,1-1.19-2.88,1.76,1.76,0,0,1,2.39,0,1.69,1.69,0,0,1-1.2,2.88Z"/><path class="cls-2" d="M86.38,13.08a1.68,1.68,0,0,1-1.19-2.88,1.72,1.72,0,0,1,2.38,0,1.66,1.66,0,0,1,.5,1.19,1.71,1.71,0,0,1-1.69,1.69Z"/><path class="cls-2" d="M78.47,13.71A1.67,1.67,0,0,1,76.78,12a1.71,1.71,0,0,1,.49-1.19,1.75,1.75,0,0,1,2.39,0,1.67,1.67,0,0,1,.5,1.19,1.76,1.76,0,0,1-.5,1.2A1.72,1.72,0,0,1,78.47,13.71Z"/><path class="cls-2" d="M64.23,35.23a1.66,1.66,0,0,1-1.19-.5,1.67,1.67,0,0,1-.5-1.19,1.66,1.66,0,0,1,.5-1.19,1.73,1.73,0,0,1,2.38,0,1.66,1.66,0,0,1,.5,1.19,1.71,1.71,0,0,1-1.69,1.69Z"/><path class="cls-2" d="M78.47,29.53a1.69,1.69,0,0,1-1.2-2.88,1.75,1.75,0,0,1,2.39,0,1.67,1.67,0,0,1,.5,1.19,1.72,1.72,0,0,1-.5,1.19A1.67,1.67,0,0,1,78.47,29.53Z"/><path class="cls-2" d="M80.05,38.71A1.71,1.71,0,0,1,78.36,37a1.7,1.7,0,0,1,.5-1.2,1.76,1.76,0,0,1,2.38,0,1.7,1.7,0,0,1,.5,1.2,1.71,1.71,0,0,1-1.69,1.69Z"/><path class="cls-2" d="M72.46,33.33a1.69,1.69,0,0,1-1.2-2.88,1.75,1.75,0,0,1,2.39,0,1.69,1.69,0,0,1-1.19,2.88Z"/><path class="cls-2" d="M68.34,39a1.69,1.69,0,0,1-1.69-1.69,1.67,1.67,0,0,1,.5-1.19,1.73,1.73,0,0,1,2.38,0,1.67,1.67,0,0,1,.5,1.19A1.69,1.69,0,0,1,68.34,39Z"/><path class="cls-2" d="M69,25.73a1.69,1.69,0,0,1-1.2-2.88,1.75,1.75,0,0,1,2.39,0A1.69,1.69,0,0,1,69,25.73Z"/><path class="cls-2" d="M64.86,18.14a1.69,1.69,0,0,1-1.69-1.69,1.67,1.67,0,0,1,.5-1.19,1.75,1.75,0,0,1,2.39,0,1.69,1.69,0,0,1,0,2.39A1.69,1.69,0,0,1,64.86,18.14Z"/><path class="cls-2" d="M69,48.83a1.67,1.67,0,0,1-1.69-1.69A1.71,1.71,0,0,1,67.78,46a1.75,1.75,0,0,1,2.39,0,1.71,1.71,0,0,1,.49,1.19A1.67,1.67,0,0,1,69,48.83Z"/><path class="cls-2" d="M67.39,58.64A1.67,1.67,0,0,1,65.71,57a1.71,1.71,0,0,1,.49-1.19,1.75,1.75,0,0,1,2.39,0A1.71,1.71,0,0,1,69.08,57a1.67,1.67,0,0,1-1.69,1.69Z"/><path class="cls-2" d="M76.25,58.64a1.72,1.72,0,0,1-1.19-.49,1.76,1.76,0,0,1-.5-1.2,1.67,1.67,0,0,1,.5-1.19,1.75,1.75,0,0,1,2.39,0A1.71,1.71,0,0,1,77.94,57a1.67,1.67,0,0,1-1.69,1.69Z"/><path class="cls-2" d="M74.67,48.2a1.68,1.68,0,0,1-1.19-2.88,1.73,1.73,0,0,1,2.38,0,1.69,1.69,0,0,1-1.19,2.88Z"/><path class="cls-2" d="M82.58,45.35a1.71,1.71,0,0,1-1.19-.49,1.73,1.73,0,0,1-.49-1.2,1.66,1.66,0,0,1,.49-1.19,1.75,1.75,0,0,1,2.39,0,1.71,1.71,0,0,1,.49,1.19,1.67,1.67,0,0,1-1.69,1.69Z"/><path class="cls-2" d="M80.37,63.07a1.73,1.73,0,0,1-1.2-.49,1.75,1.75,0,0,1-.49-1.2,1.71,1.71,0,0,1,.49-1.19,1.75,1.75,0,0,1,2.39,0,1.71,1.71,0,0,1,.49,1.19,1.73,1.73,0,0,1-.49,1.2A1.71,1.71,0,0,1,80.37,63.07Z"/><path class="cls-2" d="M73.72,77a1.68,1.68,0,0,1-1.19-2.88,1.73,1.73,0,0,1,2.38,0A1.69,1.69,0,0,1,73.72,77Z"/><path class="cls-2" d="M80.05,72.88a1.69,1.69,0,0,1-1.69-1.69,1.67,1.67,0,0,1,.5-1.19,1.73,1.73,0,0,1,2.38,0,1.69,1.69,0,0,1-1.19,2.88Z"/><path class="cls-2" d="M86.06,76.68a1.72,1.72,0,0,1-1.19-.5,1.67,1.67,0,0,1-.5-1.19,1.7,1.7,0,0,1,.5-1.2,1.77,1.77,0,0,1,2.39,0,1.73,1.73,0,0,1,.49,1.2,1.71,1.71,0,0,1-.49,1.19A1.74,1.74,0,0,1,86.06,76.68Z"/><path class="cls-2" d="M89.23,83.32a1.67,1.67,0,0,1-1.69-1.69A1.71,1.71,0,0,1,88,80.44a1.75,1.75,0,0,1,2.39,0,1.71,1.71,0,0,1,.49,1.19,1.75,1.75,0,0,1-.49,1.2A1.72,1.72,0,0,1,89.23,83.32Z"/><path class="cls-2" d="M88.59,88.7A1.71,1.71,0,0,1,86.9,87a1.66,1.66,0,0,1,.5-1.19,1.73,1.73,0,0,1,2.38,0,1.66,1.66,0,0,1,.5,1.19,1.69,1.69,0,0,1-1.69,1.69Z"/><path class="cls-2" d="M74.67,86.17A1.71,1.71,0,0,1,73,84.48a1.7,1.7,0,0,1,.5-1.2,1.76,1.76,0,0,1,2.38,0,1.7,1.7,0,0,1,.5,1.2,1.71,1.71,0,0,1-1.69,1.69Z"/><path class="cls-2" d="M61.07,87.12a1.69,1.69,0,0,1-1.2-2.88,1.75,1.75,0,0,1,2.39,0,1.69,1.69,0,0,1,.49,1.19,1.72,1.72,0,0,1-.49,1.19A1.67,1.67,0,0,1,61.07,87.12Z"/><path class="cls-2" d="M65.18,71.61A1.68,1.68,0,0,1,64,68.73a1.74,1.74,0,0,1,2.38,0,1.69,1.69,0,0,1-1.19,2.88Z"/><path class="cls-2" d="M51.57,65.6a1.67,1.67,0,0,1-1.68-1.69,1.71,1.71,0,0,1,.49-1.19,1.75,1.75,0,0,1,2.39,0,1.69,1.69,0,0,1-1.2,2.88Z"/><path class="cls-2" d="M45.88,77a1.67,1.67,0,0,1-1.69-1.69,1.71,1.71,0,0,1,.49-1.19,1.75,1.75,0,0,1,2.39,0,1.67,1.67,0,0,1,.5,1.19A1.69,1.69,0,0,1,45.88,77Z"/><path class="cls-2" d="M37.33,86.8a1.71,1.71,0,0,1-1.19-.49,1.73,1.73,0,0,1-.49-1.2,1.71,1.71,0,0,1,.49-1.19,1.75,1.75,0,0,1,2.39,0A1.71,1.71,0,0,1,39,85.11a1.67,1.67,0,0,1-1.69,1.69Z"/><path class="cls-2" d="M41.13,84.58a1.71,1.71,0,0,1-1.19-.49,1.67,1.67,0,0,1-.5-1.19,1.7,1.7,0,0,1,.5-1.2,1.74,1.74,0,0,1,2.38,0,1.7,1.7,0,0,1,.5,1.2,1.72,1.72,0,0,1-.49,1.19A1.75,1.75,0,0,1,41.13,84.58Z"/><path class="cls-2" d="M49,88.7a1.68,1.68,0,0,1-1.19-2.88,1.75,1.75,0,0,1,2.39,0A1.69,1.69,0,0,1,49,88.7Z"/><path class="cls-2" d="M88,25.1a1.69,1.69,0,0,1-1.69-1.69,1.71,1.71,0,0,1,.49-1.19,1.75,1.75,0,0,1,2.39,0,1.67,1.67,0,0,1,.5,1.19A1.69,1.69,0,0,1,88,25.1Z"/><path class="cls-2" d="M88.91,45.67a1.66,1.66,0,0,1-1.19-.5,1.67,1.67,0,0,1-.5-1.19,1.71,1.71,0,0,1,.49-1.19,1.76,1.76,0,0,1,2.39,0,1.7,1.7,0,0,1,.5,1.2,1.71,1.71,0,0,1-1.69,1.69Z"/><path class="cls-2" d="M85.11,60.54a1.68,1.68,0,0,1-1.19-2.88,1.75,1.75,0,0,1,2.39,0,1.68,1.68,0,0,1,0,2.38A1.66,1.66,0,0,1,85.11,60.54Z"/><path class="cls-2" d="M23.73,38.07a1.68,1.68,0,0,1-1.19-2.88,1.73,1.73,0,0,1,2.38,0,1.69,1.69,0,0,1-1.19,2.88Z"/><path class="cls-2" d="M24.36,80.15a1.68,1.68,0,0,1-1.19-2.88,1.76,1.76,0,0,1,2.39,0,1.73,1.73,0,0,1,.49,1.2,1.69,1.69,0,0,1-1.69,1.68Z"/><path class="cls-2" d="M31,82.37a1.75,1.75,0,0,1-1.2-.49,1.73,1.73,0,0,1-.49-1.2,1.71,1.71,0,0,1,.49-1.19,1.75,1.75,0,0,1,2.39,0,1.67,1.67,0,0,1,.5,1.19A1.69,1.69,0,0,1,31,82.37Z"/><path class="cls-2" d="M34.8,69.4a1.69,1.69,0,0,1-1.19-2.88,1.75,1.75,0,0,1,2.39,0,1.68,1.68,0,0,1,0,2.38A1.66,1.66,0,0,1,34.8,69.4Z"/><path class="cls-2" d="M19,44.08A1.67,1.67,0,0,1,17.3,42.4a1.73,1.73,0,0,1,.49-1.2,1.77,1.77,0,0,1,2.39,0,1.73,1.73,0,0,1,.49,1.2,1.71,1.71,0,0,1-.49,1.19A1.73,1.73,0,0,1,19,44.08Z"/><path class="cls-2" d="M27.21,62.75a1.69,1.69,0,0,1-1.69-1.68,1.73,1.73,0,0,1,.49-1.2,1.75,1.75,0,0,1,2.39,0,1.69,1.69,0,0,1-1.19,2.88Z"/><path class="cls-2" d="M10.44,41.87a1.69,1.69,0,0,1-1.69-1.69A1.67,1.67,0,0,1,9.25,39a1.73,1.73,0,0,1,2.38,0,1.67,1.67,0,0,1,.5,1.19,1.69,1.69,0,0,1-1.69,1.69Z"/><path class="cls-2" d="M11.71,34.28a1.7,1.7,0,0,1-1.2-2.89,1.76,1.76,0,0,1,2.39,0,1.74,1.74,0,0,1,.5,1.2,1.72,1.72,0,0,1-.5,1.19A1.67,1.67,0,0,1,11.71,34.28Z"/><path class="cls-2" d="M2.53,42.19a1.7,1.7,0,0,1-1.19-.5,1.67,1.67,0,0,1-.5-1.19,1.66,1.66,0,0,1,.5-1.19,1.74,1.74,0,0,1,2.38,0,1.7,1.7,0,0,1,.5,1.2,1.67,1.67,0,0,1-.5,1.19A1.7,1.7,0,0,1,2.53,42.19Z"/><path class="cls-2" d="M4.75,28.58a1.69,1.69,0,0,1-1.69-1.69,1.71,1.71,0,0,1,.49-1.19,1.75,1.75,0,0,1,2.39,0,1.71,1.71,0,0,1,.49,1.19,1.69,1.69,0,0,1-1.68,1.69Z"/><path class="cls-2" d="M11.07,17.82a1.71,1.71,0,0,1-1.19-.49,1.7,1.7,0,0,1,0-2.39,1.75,1.75,0,0,1,2.39,0,1.69,1.69,0,0,1-1.2,2.88Z"/><path class="cls-2" d="M23.41,16.24a1.69,1.69,0,0,1-1.19-2.88,1.75,1.75,0,0,1,2.39,0,1.69,1.69,0,0,1,0,2.39A1.69,1.69,0,0,1,23.41,16.24Z"/><path class="cls-2" d="M34.49,17.82a1.69,1.69,0,0,1-1.2-2.88,1.75,1.75,0,0,1,2.39,0,1.69,1.69,0,0,1,.5,1.19,1.74,1.74,0,0,1-.5,1.2A1.71,1.71,0,0,1,34.49,17.82Z"/><path class="cls-2" d="M40.5,18.46a1.7,1.7,0,0,1-1.19-.5,1.67,1.67,0,0,1-.5-1.19,1.73,1.73,0,0,1,.49-1.2,1.76,1.76,0,0,1,2.39,0,1.71,1.71,0,0,1,.5,1.2,1.67,1.67,0,0,1-.5,1.19A1.7,1.7,0,0,1,40.5,18.46Z"/><path class="cls-2" d="M52.84,11.81a1.69,1.69,0,0,1-1.69-1.69,1.72,1.72,0,0,1,.49-1.19,1.75,1.75,0,0,1,2.39,0,1.69,1.69,0,0,1,.5,1.19,1.69,1.69,0,0,1-1.69,1.69Z"/><path class="cls-2" d="M56.64,3.9a1.73,1.73,0,0,1-1.2-.49A1.75,1.75,0,0,1,55,2.21,1.71,1.71,0,0,1,55.44,1a1.75,1.75,0,0,1,2.39,0A1.69,1.69,0,0,1,56.64,3.9Z"/><path class="cls-2" d="M31.32,6.12a1.67,1.67,0,0,1-1.19-.5,1.71,1.71,0,0,1-.49-1.19,1.69,1.69,0,0,1,.49-1.19,1.75,1.75,0,0,1,2.39,0A1.75,1.75,0,0,1,33,4.43a1.67,1.67,0,0,1-.5,1.19A1.66,1.66,0,0,1,31.32,6.12Z"/><path class="cls-2" d="M24.68,8.33A1.69,1.69,0,0,1,23,6.64a1.67,1.67,0,0,1,.5-1.19,1.73,1.73,0,0,1,2.38,0,1.67,1.67,0,0,1,.5,1.19,1.7,1.7,0,0,1-.5,1.2A1.72,1.72,0,0,1,24.68,8.33Z"/><path class="cls-2" d="M14.24,4.85A1.73,1.73,0,0,1,13,4.36,1.7,1.7,0,0,1,13,2a1.75,1.75,0,0,1,2.39,0,1.73,1.73,0,0,1,.5,1.19,1.74,1.74,0,0,1-.5,1.2A1.71,1.71,0,0,1,14.24,4.85Z"/><path class="cls-2" d="M3.16,6.12A1.67,1.67,0,0,1,2,5.62,1.67,1.67,0,0,1,2,3.24a1.76,1.76,0,0,1,2.39,0,1.7,1.7,0,0,1,0,2.39A1.7,1.7,0,0,1,3.16,6.12Z"/><path class="cls-2" d="M1.58,16.56a1.67,1.67,0,0,1-1.19-.5,1.67,1.67,0,0,1,0-2.38,1.75,1.75,0,0,1,2.39,0,1.71,1.71,0,0,1,.49,1.19,1.67,1.67,0,0,1-.5,1.19A1.66,1.66,0,0,1,1.58,16.56Z"/><path class="cls-2" d="M7,91.86a1.69,1.69,0,0,1-1.69-1.68A1.73,1.73,0,0,1,5.76,89a1.75,1.75,0,0,1,2.39,0,1.68,1.68,0,0,1,0,2.39A1.72,1.72,0,0,1,7,91.86Z"/><path class="cls-2" d="M42.71,90a1.69,1.69,0,0,1-1.19-2.88,1.76,1.76,0,0,1,2.39,0,1.73,1.73,0,0,1,.49,1.2A1.69,1.69,0,0,1,42.71,90Z"/><path class="cls-2" d="M50.31,93.44a1.69,1.69,0,0,1-1.2-2.88,1.76,1.76,0,0,1,2.39,0,1.69,1.69,0,0,1-1.19,2.88Z"/><path class="cls-2" d="M59.48,91.86A1.69,1.69,0,0,1,58.29,89a1.75,1.75,0,0,1,2.39,0,1.69,1.69,0,0,1-1.2,2.88Z"/><path class="cls-2" d="M67.71,91.86A1.69,1.69,0,0,1,66,90.18a1.73,1.73,0,0,1,.49-1.2,1.76,1.76,0,0,1,2.39,0,1.69,1.69,0,0,1-1.19,2.88Z"/><path class="cls-2" d="M79.1,93.76a1.67,1.67,0,0,1-1.19-.5,1.66,1.66,0,0,1-.5-1.19,1.67,1.67,0,0,1,.5-1.19,1.73,1.73,0,0,1,2.38,0,1.67,1.67,0,0,1,.5,1.19,1.69,1.69,0,0,1-1.69,1.69Z"/><path class="cls-2" d="M89.23,93.76A1.69,1.69,0,0,1,88,90.88a1.75,1.75,0,0,1,2.39,0,1.71,1.71,0,0,1,.49,1.19,1.69,1.69,0,0,1-1.68,1.69Z"/><path class="cls-2" d="M89.23,72.25A1.69,1.69,0,0,1,88,69.37a1.75,1.75,0,0,1,2.39,0,1.69,1.69,0,0,1,.49,1.19,1.72,1.72,0,0,1-.49,1.19A1.69,1.69,0,0,1,89.23,72.25Z"/><path class="cls-2" d="M86.7,51.05a1.69,1.69,0,0,1-1.2-2.88,1.74,1.74,0,0,1,2.39,0,1.69,1.69,0,0,1,.49,1.19,1.69,1.69,0,0,1-1.68,1.69Z"/><path class="cls-2" d="M89.23,17.19A1.69,1.69,0,0,1,88,14.31a1.75,1.75,0,0,1,2.39,0,1.71,1.71,0,0,1,.49,1.19,1.69,1.69,0,0,1-1.68,1.69Z"/><path class="cls-2" d="M18.67,4.18A2,2,0,0,1,17.28.82a2,2,0,0,1,2.78,0,2,2,0,0,1,0,2.78A2,2,0,0,1,18.67,4.18Z"/><path class="cls-2" d="M76.25,95.24a2.53,2.53,0,0,1-2.53-2.54,2.54,2.54,0,0,1,.74-1.78,2.61,2.61,0,0,1,3.58,0,2.55,2.55,0,0,1,0,3.59A2.54,2.54,0,0,1,76.25,95.24Z"/><path class="cls-2" d="M65.5,93.65a2.53,2.53,0,0,1-1.79-4.32,2.61,2.61,0,0,1,3.57,0,2.53,2.53,0,0,1-1.78,4.32Z"/><path class="cls-2" d="M36.07,93.13a1.71,1.71,0,0,1-1.69-1.69,1.66,1.66,0,0,1,.5-1.19,1.73,1.73,0,0,1,2.38,0,1.66,1.66,0,0,1,.5,1.19,1.71,1.71,0,0,1-1.69,1.69Z"/><path class="cls-2" d="M22.78,93.44a1.68,1.68,0,0,1-1.19-2.88,1.73,1.73,0,0,1,2.38,0,1.69,1.69,0,0,1-1.19,2.88Z"/><path class="cls-2" d="M2.21,74.14A1.71,1.71,0,0,1,1,73.65a1.7,1.7,0,0,1,0-2.39,1.76,1.76,0,0,1,2.39,0,1.7,1.7,0,0,1,0,2.39A1.73,1.73,0,0,1,2.21,74.14Z"/><path class="cls-2" d="M54.11,29.85A1.69,1.69,0,0,1,52.91,27a1.75,1.75,0,0,1,2.39,0,1.69,1.69,0,0,1-1.19,2.88Z"/><path class="cls-2" d="M64.55,30.69A2.54,2.54,0,0,1,62.76,30a2.51,2.51,0,0,1,0-3.58,2.61,2.61,0,0,1,3.57,0,2.51,2.51,0,0,1,0,3.58A2.54,2.54,0,0,1,64.55,30.69Z"/><path class="cls-2" d="M43.66,46.51a2.53,2.53,0,0,1-1.79-4.32,2.62,2.62,0,0,1,3.58,0,2.53,2.53,0,0,1-1.79,4.32Z"/><path class="cls-2" d="M47.78,48.48a2,2,0,0,1-1.4-3.36,2.05,2.05,0,0,1,2.79,0,2,2,0,0,1-1.39,3.36Z"/><path class="cls-2" d="M43.66,30.76a2,2,0,0,1-1.39-3.36,2,2,0,0,1,2.78,0,2,2,0,0,1-1.39,3.36Z"/><path class="cls-2" d="M41.76,23.8a2,2,0,0,1-1.39-3.36,2,2,0,0,1,2.79,0,2,2,0,0,1-1.4,3.36Z"/><path class="cls-2" d="M36.7,46.62a1.67,1.67,0,0,1-1.19-.5,1.72,1.72,0,0,1-.5-1.19,1.67,1.67,0,0,1,.5-1.19,1.68,1.68,0,0,1,2.88,1.19,1.67,1.67,0,0,1-.5,1.19A1.66,1.66,0,0,1,36.7,46.62Z"/><path class="cls-2" d="M26.26,40.29a1.68,1.68,0,0,1-1.19-2.88,1.73,1.73,0,0,1,2.38,0,1.67,1.67,0,0,1,0,2.38A1.66,1.66,0,0,1,26.26,40.29Z"/><path class="cls-2" d="M27.84,36.18a1.72,1.72,0,0,1-1.19-.5,1.67,1.67,0,0,1-.5-1.19,1.7,1.7,0,0,1,.5-1.2,1.74,1.74,0,0,1,2.38,0,1.7,1.7,0,0,1,.5,1.2,1.67,1.67,0,0,1-.5,1.19A1.7,1.7,0,0,1,27.84,36.18Z"/><path class="cls-2" d="M27.21,31.75a1.66,1.66,0,0,1-1.19-.5,1.67,1.67,0,0,1-.5-1.19,1.75,1.75,0,0,1,.49-1.2,1.77,1.77,0,0,1,2.39,0,1.71,1.71,0,0,1,.5,1.2,1.71,1.71,0,0,1-1.69,1.69Z"/><path class="cls-2" d="M35.12,32.38a1.71,1.71,0,0,1-1.69-1.69,1.66,1.66,0,0,1,.5-1.19,1.73,1.73,0,0,1,2.38,0,1.67,1.67,0,0,1,0,2.38A1.66,1.66,0,0,1,35.12,32.38Z"/><path class="cls-2" d="M63.28,51.68a1.66,1.66,0,0,1-1.19-.5,1.67,1.67,0,0,1,0-2.38,1.73,1.73,0,0,1,2.38,0A1.67,1.67,0,0,1,65,50a1.71,1.71,0,0,1-1.69,1.69Z"/><path class="cls-2" d="M62.65,58.64a1.75,1.75,0,0,1-1.2-.49A1.73,1.73,0,0,1,61,57a1.71,1.71,0,0,1,.49-1.19,1.75,1.75,0,0,1,2.39,0,1.67,1.67,0,0,1,.5,1.19,1.69,1.69,0,0,1-1.69,1.69Z"/><path class="cls-2" d="M61.07,38.71a1.69,1.69,0,0,1-1.2-2.88,1.75,1.75,0,0,1,2.39,0A1.69,1.69,0,0,1,62.75,37a1.69,1.69,0,0,1-1.68,1.69Z"/><path class="cls-2" d="M66.13,42.19a1.71,1.71,0,0,1-1.69-1.69,1.66,1.66,0,0,1,.5-1.19,1.72,1.72,0,0,1,2.38,0,1.66,1.66,0,0,1,.5,1.19,1.71,1.71,0,0,1-1.69,1.69Z"/><path class="cls-2" d="M71.19,61.49A1.71,1.71,0,0,1,69.5,59.8a1.66,1.66,0,0,1,.5-1.19,1.73,1.73,0,0,1,2.38,0,1.66,1.66,0,0,1,.5,1.19,1.67,1.67,0,0,1-.5,1.19A1.66,1.66,0,0,1,71.19,61.49Z"/><path class="cls-2" d="M72.77,55.16a1.67,1.67,0,0,1-1.19-.5,1.69,1.69,0,0,1,0-2.38,1.75,1.75,0,0,1,2.39,0,1.69,1.69,0,0,1-1.2,2.88Z"/><path class="cls-2" d="M79.1,49.78a1.67,1.67,0,0,1-1.19-.5,1.66,1.66,0,0,1-.5-1.19,1.67,1.67,0,0,1,.5-1.19,1.73,1.73,0,0,1,2.38,0,1.67,1.67,0,0,1,.5,1.19,1.71,1.71,0,0,1-1.69,1.69Z"/><path class="cls-2" d="M77.83,45.67a1.67,1.67,0,0,1-1.19-.5A1.71,1.71,0,0,1,76.15,44a1.69,1.69,0,0,1,.49-1.19,1.75,1.75,0,0,1,2.39,0A1.69,1.69,0,0,1,79.52,44a1.69,1.69,0,0,1-1.69,1.69Z"/><path class="cls-2" d="M86.7,40.6a1.69,1.69,0,0,1-1.2-2.88,1.76,1.76,0,0,1,2.39,0A1.69,1.69,0,0,1,86.7,40.6Z"/><path class="cls-2" d="M83.21,48.83A1.71,1.71,0,0,1,82,48.34a1.73,1.73,0,0,1-.49-1.2A1.66,1.66,0,0,1,82,46a1.75,1.75,0,0,1,2.39,0,1.71,1.71,0,0,1,.49,1.19,1.69,1.69,0,0,1-1.69,1.69Z"/><path class="cls-2" d="M85.75,52.35a1.43,1.43,0,0,1-1-.41,1.45,1.45,0,0,1-.41-1,1.41,1.41,0,0,1,.41-1,1.45,1.45,0,0,1,2,0,1.41,1.41,0,0,1,.41,1,1.45,1.45,0,0,1-.41,1A1.41,1.41,0,0,1,85.75,52.35Z"/><path class="cls-2" d="M70.88,16.24a1.67,1.67,0,0,1-1.69-1.69,1.71,1.71,0,0,1,.49-1.19,1.76,1.76,0,0,1,2.39,0,1.71,1.71,0,0,1,.49,1.19,1.67,1.67,0,0,1-1.68,1.69Z"/><path class="cls-2" d="M73.4,17.19a1.67,1.67,0,0,1-1.68-1.69,1.71,1.71,0,0,1,.49-1.19,1.75,1.75,0,0,1,2.39,0,1.71,1.71,0,0,1,.49,1.19,1.67,1.67,0,0,1-1.69,1.69Z"/><path class="cls-2" d="M82.9,15.61a1.66,1.66,0,0,1-1.19-.5,1.67,1.67,0,0,1-.5-1.19,1.71,1.71,0,0,1,.49-1.19,1.75,1.75,0,0,1,2.39,0,1.69,1.69,0,0,1-1.19,2.88Z"/><path class="cls-2" d="M87.33,20.67A1.67,1.67,0,0,1,85.64,19a1.67,1.67,0,0,1,.5-1.19,1.73,1.73,0,0,1,2.38,0A1.67,1.67,0,0,1,89,19a1.69,1.69,0,0,1-1.69,1.69Z"/><path class="cls-2" d="M74,8.65a1.66,1.66,0,0,1-1.19-.5A1.67,1.67,0,0,1,72.35,7a1.71,1.71,0,0,1,.49-1.19,1.75,1.75,0,0,1,2.39,0A1.69,1.69,0,0,1,74,8.65Z"/><path class="cls-2" d="M36.39,6.43A1.67,1.67,0,0,1,34.7,4.75a1.71,1.71,0,0,1,.49-1.2,1.75,1.75,0,0,1,2.39,0,1.7,1.7,0,0,1,0,2.39A1.71,1.71,0,0,1,36.39,6.43Z"/><path class="cls-2" d="M36.07,14a1.71,1.71,0,0,1-1.69-1.69,1.66,1.66,0,0,1,.5-1.19,1.73,1.73,0,0,1,2.38,0A1.69,1.69,0,0,1,36.07,14Z"/><path class="cls-2" d="M38.6,15a1.71,1.71,0,0,1-1.69-1.69,1.7,1.7,0,0,1,.5-1.2,1.76,1.76,0,0,1,2.38,0,1.71,1.71,0,0,1,.5,1.2,1.67,1.67,0,0,1-.5,1.19A1.7,1.7,0,0,1,38.6,15Z"/><path class="cls-2" d="M44.93,12.44a1.69,1.69,0,0,1-1.69-1.68,1.73,1.73,0,0,1,.49-1.2,1.75,1.75,0,0,1,2.39,0,1.69,1.69,0,0,1-1.19,2.88Z"/><path class="cls-2" d="M33.85,21.94a1.69,1.69,0,0,1-1.19-2.88,1.75,1.75,0,0,1,2.39,0,1.69,1.69,0,0,1,.49,1.19,1.69,1.69,0,0,1-1.69,1.69Z"/><path class="cls-2" d="M57,20.67a1.71,1.71,0,0,1-1.19-.49,1.74,1.74,0,0,1-.5-1.2,1.72,1.72,0,0,1,.5-1.19,1.75,1.75,0,0,1,2.39,0A1.71,1.71,0,0,1,58.64,19,1.67,1.67,0,0,1,57,20.67Z"/><path class="cls-2" d="M60.12,20a1.69,1.69,0,0,1-1.2-2.88,1.75,1.75,0,0,1,2.39,0,1.69,1.69,0,0,1,0,2.38A1.67,1.67,0,0,1,60.12,20Z"/><path class="cls-2" d="M18,18.14a1.67,1.67,0,0,1-1.68-1.69,1.71,1.71,0,0,1,.49-1.19,1.75,1.75,0,0,1,2.39,0,1.71,1.71,0,0,1,.49,1.19A1.67,1.67,0,0,1,18,18.14Z"/><path class="cls-2" d="M24.68,11.81a1.68,1.68,0,0,1-1.19-2.88,1.73,1.73,0,0,1,2.38,0,1.67,1.67,0,0,1,.5,1.19,1.69,1.69,0,0,1-1.69,1.69Z"/><path class="cls-2" d="M26.58,13.71a1.73,1.73,0,0,1-1.2-.49,1.75,1.75,0,0,1-.49-1.2,1.71,1.71,0,0,1,.49-1.19,1.75,1.75,0,0,1,2.39,0A1.71,1.71,0,0,1,28.26,12a1.67,1.67,0,0,1-1.68,1.69Z"/><path class="cls-2" d="M16.77,7.38a1.69,1.69,0,0,1-1.2-2.88A1.75,1.75,0,0,1,18,4.5a1.69,1.69,0,0,1-1.19,2.88Z"/><path class="cls-2" d="M4.11,14a1.71,1.71,0,0,1-1.69-1.69,1.66,1.66,0,0,1,.5-1.19,1.76,1.76,0,0,1,2.39,0,1.75,1.75,0,0,1,.49,1.2A1.69,1.69,0,0,1,4.11,14Z"/><path class="cls-2" d="M6.64,16.87a1.72,1.72,0,0,1-1.19-.49A1.71,1.71,0,0,1,5,15.19,1.73,1.73,0,0,1,5.45,14a1.76,1.76,0,0,1,2.39,0,1.73,1.73,0,0,1,.49,1.2,1.71,1.71,0,0,1-.49,1.19A1.73,1.73,0,0,1,6.64,16.87Z"/><path class="cls-2" d="M6.64,21a1.67,1.67,0,0,1-1.19-.5,1.69,1.69,0,0,1,0-2.38,1.75,1.75,0,0,1,2.39,0,1.69,1.69,0,0,1,0,2.38A1.68,1.68,0,0,1,6.64,21Z"/><path class="cls-2" d="M6.64,25.42a1.69,1.69,0,0,1-1.19-2.88,1.75,1.75,0,0,1,2.39,0,1.69,1.69,0,0,1,.49,1.19,1.69,1.69,0,0,1-1.69,1.69Z"/><path class="cls-2" d="M7.91,25.42a1.71,1.71,0,0,1-1.69-1.69,1.66,1.66,0,0,1,.5-1.19,1.73,1.73,0,0,1,2.38,0,1.66,1.66,0,0,1,.5,1.19,1.71,1.71,0,0,1-1.69,1.69Z"/><path class="cls-2" d="M8.54,23.52a1.68,1.68,0,0,1-1.19-2.88,1.75,1.75,0,0,1,2.39,0,1.71,1.71,0,0,1,.49,1.19A1.67,1.67,0,0,1,9.73,23,1.66,1.66,0,0,1,8.54,23.52Z"/><path class="cls-2" d="M13.6,21.94a1.69,1.69,0,0,1-1.19-2.88,1.75,1.75,0,0,1,2.39,0,1.69,1.69,0,0,1-1.2,2.88Z"/><path class="cls-2" d="M16.45,23.83A1.68,1.68,0,0,1,15.26,21a1.76,1.76,0,0,1,2.39,0,1.69,1.69,0,0,1-1.2,2.88Z"/><path class="cls-2" d="M16.14,29.53a1.73,1.73,0,0,1-1.2-.49,1.75,1.75,0,0,1-.49-1.2,1.71,1.71,0,0,1,.49-1.19,1.75,1.75,0,0,1,2.39,0,1.71,1.71,0,0,1,.49,1.19,1.67,1.67,0,0,1-1.68,1.69Z"/><path class="cls-2" d="M15.5,33.33a1.69,1.69,0,0,1-1.19-.5,1.67,1.67,0,0,1,0-2.38,1.68,1.68,0,0,1,2.88,1.19,1.69,1.69,0,0,1-1.69,1.69Z"/><path class="cls-2" d="M18.35,32.69a1.71,1.71,0,0,1-1.19-.49,1.67,1.67,0,0,1-.5-1.19,1.7,1.7,0,0,1,.5-1.2,1.73,1.73,0,0,1,2.38,0A1.7,1.7,0,0,1,20,31a1.67,1.67,0,0,1-.5,1.19A1.71,1.71,0,0,1,18.35,32.69Z"/><path class="cls-2" d="M25.31,26.05a1.69,1.69,0,0,1-1.69-1.69,1.67,1.67,0,0,1,.5-1.19,1.75,1.75,0,0,1,2.39,0A1.72,1.72,0,0,1,27,24.36a1.69,1.69,0,0,1-1.69,1.69Z"/><path class="cls-2" d="M37,20a1.71,1.71,0,0,1-1.69-1.69,1.66,1.66,0,0,1,.5-1.19,1.73,1.73,0,0,1,2.38,0A1.69,1.69,0,0,1,37,20Z"/><path class="cls-2" d="M20.57,40.92a1.67,1.67,0,0,1-1.69-1.69A1.71,1.71,0,0,1,19.37,38a1.75,1.75,0,0,1,2.39,0,1.71,1.71,0,0,1,.49,1.19,1.67,1.67,0,0,1-1.68,1.69Z"/><path class="cls-2" d="M21.51,49.78a1.69,1.69,0,0,1-1.19-2.88,1.75,1.75,0,0,1,2.39,0,1.71,1.71,0,0,1,.49,1.19,1.69,1.69,0,0,1-1.69,1.69Z"/><path class="cls-2" d="M17.08,51.68A1.69,1.69,0,0,1,15.4,50a1.71,1.71,0,0,1,.49-1.19,1.75,1.75,0,0,1,2.39,0A1.71,1.71,0,0,1,18.77,50a1.69,1.69,0,0,1-1.69,1.69Z"/><path class="cls-2" d="M22.15,53.26a1.67,1.67,0,0,1-1.69-1.69A1.71,1.71,0,0,1,21,50.38a1.75,1.75,0,0,1,2.39,0,1.67,1.67,0,0,1,.5,1.19,1.69,1.69,0,0,1-1.69,1.69Z"/><path class="cls-2" d="M24.36,49.47a1.72,1.72,0,0,1-1.19-.5,1.68,1.68,0,0,1,0-2.39,1.76,1.76,0,0,1,2.39,0,1.73,1.73,0,0,1,.49,1.2,1.67,1.67,0,0,1-.5,1.19A1.7,1.7,0,0,1,24.36,49.47Z"/><path class="cls-2" d="M29.11,48.09a2.53,2.53,0,0,1-1.79-4.32,2.62,2.62,0,0,1,3.58,0,2.53,2.53,0,0,1-1.79,4.32Z"/><path class="cls-2" d="M9.81,49.36A2.53,2.53,0,0,1,8,45a2.62,2.62,0,0,1,3.58,0,2.53,2.53,0,0,1-1.79,4.32Z"/><path class="cls-2" d="M13.29,57.9a2.53,2.53,0,0,1-1.79-4.32,2.62,2.62,0,0,1,3.58,0,2.53,2.53,0,0,1-1.79,4.32Z"/><path class="cls-2" d="M30.37,59.8a2.53,2.53,0,0,1-2.53-2.53,2.54,2.54,0,0,1,.74-1.79,2.62,2.62,0,0,1,3.58,0,2.53,2.53,0,0,1-1.79,4.32Z"/><path class="cls-2" d="M35.75,56A2.53,2.53,0,0,1,34,51.68a2.62,2.62,0,0,1,3.58,0A2.53,2.53,0,0,1,35.75,56Z"/><path class="cls-2" d="M42.4,65.49A2.53,2.53,0,0,1,39.87,63a2.58,2.58,0,0,1,.74-1.79,2.62,2.62,0,0,1,3.58,0,2.53,2.53,0,0,1-1.79,4.32Z"/><path class="cls-2" d="M38.6,74.67a2.53,2.53,0,0,1-1.79-4.32,2.62,2.62,0,0,1,3.58,0,2.53,2.53,0,0,1-1.79,4.32Z"/><path class="cls-2" d="M13.29,82.34a2,2,0,0,1-2-2A2,2,0,0,1,11.9,79a2,2,0,0,1,2.78,0,2,2,0,0,1,0,2.79A2,2,0,0,1,13.29,82.34Z"/><path class="cls-2" d="M22.46,74a2.53,2.53,0,0,1-1.79-4.32,2.6,2.6,0,0,1,3.58,0A2.54,2.54,0,0,1,25,71.51a2.58,2.58,0,0,1-.74,1.79A2.54,2.54,0,0,1,22.46,74Z"/><path class="cls-2" d="M16.45,65.81a2.53,2.53,0,0,1-1.79-4.32,2.62,2.62,0,0,1,3.58,0,2.53,2.53,0,0,1-1.79,4.32Z"/><path class="cls-2" d="M22.15,62.33A2.53,2.53,0,0,1,20.36,58a2.61,2.61,0,0,1,3.58,0,2.53,2.53,0,0,1-1.79,4.32Z"/><path class="cls-2" d="M27.84,57.58a2.53,2.53,0,0,1-2.53-2.53,2.58,2.58,0,0,1,.74-1.79,2.62,2.62,0,0,1,3.58,0,2.58,2.58,0,0,1,.74,1.79,2.53,2.53,0,0,1-2.53,2.53Z"/><path class="cls-2" d="M29.5,76.41a2.51,2.51,0,0,1-1.79-.75,2.53,2.53,0,0,1,0-3.58,2.62,2.62,0,0,1,3.58,0,2.54,2.54,0,0,1-1.79,4.33Z"/><path class="cls-2" d="M66.13,75.73A1.71,1.71,0,0,1,64.44,74a1.66,1.66,0,0,1,.5-1.19,1.73,1.73,0,0,1,2.38,0,1.66,1.66,0,0,1,.5,1.19,1.71,1.71,0,0,1-1.69,1.69Z"/><path class="cls-2" d="M73.72,71.93a1.68,1.68,0,0,1-1.19-2.88,1.73,1.73,0,0,1,2.38,0,1.69,1.69,0,0,1-1.19,2.88Z"/><path class="cls-2" d="M62,67.5A1.71,1.71,0,0,1,60.82,67a1.74,1.74,0,0,1-.5-1.2,1.67,1.67,0,0,1,.5-1.19,1.75,1.75,0,0,1,2.39,0,1.71,1.71,0,0,1,.49,1.19,1.75,1.75,0,0,1-.49,1.2A1.73,1.73,0,0,1,62,67.5Z"/><path class="cls-2" d="M53.79,61.8a1.73,1.73,0,0,1-1.2-.49,1.71,1.71,0,0,1-.49-1.19,1.73,1.73,0,0,1,.49-1.2,1.75,1.75,0,0,1,2.39,0,1.68,1.68,0,0,1,0,2.39A1.71,1.71,0,0,1,53.79,61.8Z"/><path class="cls-2" d="M51.26,57.69a1.69,1.69,0,0,1-1.2-2.88,1.75,1.75,0,0,1,2.39,0A1.67,1.67,0,0,1,53,56a1.69,1.69,0,0,1-1.69,1.69Z"/><path class="cls-2" d="M47.78,42.19a1.69,1.69,0,0,1-1.2-2.88,1.74,1.74,0,0,1,2.39,0,1.69,1.69,0,0,1-1.19,2.88Z"/><path class="cls-2" d="M55.69,39.34a1.73,1.73,0,0,1-1.2-.49,1.75,1.75,0,0,1-.49-1.2,1.71,1.71,0,0,1,.49-1.19,1.75,1.75,0,0,1,2.39,0,1.69,1.69,0,0,1-1.19,2.88Z"/><path class="cls-2" d="M14.87,42.19a1.71,1.71,0,0,1-1.69-1.69,1.7,1.7,0,0,1,.5-1.2,1.76,1.76,0,0,1,2.38,0,1.7,1.7,0,0,1,.5,1.2,1.71,1.71,0,0,1-1.69,1.69Z"/><path class="cls-2" d="M25,51.68a1.71,1.71,0,0,1-1.19-.49,1.75,1.75,0,0,1-.49-1.2,1.71,1.71,0,0,1,.49-1.19,1.75,1.75,0,0,1,2.39,0A1.71,1.71,0,0,1,26.68,50,1.67,1.67,0,0,1,25,51.68Z"/><path class="cls-2" d="M42.4,80.47a1.67,1.67,0,0,1-1.69-1.68,1.71,1.71,0,0,1,.49-1.2,1.75,1.75,0,0,1,2.39,0,1.69,1.69,0,0,1-1.19,2.88Z"/><path class="cls-2" d="M46.83,81.1a1.69,1.69,0,0,1-1.69-1.68,1.73,1.73,0,0,1,.49-1.2,1.76,1.76,0,0,1,2.39,0,1.69,1.69,0,0,1-1.19,2.88Z"/><path class="cls-2" d="M50.94,78.57a1.69,1.69,0,0,1-1.69-1.68,1.68,1.68,0,0,1,.5-1.2,1.73,1.73,0,0,1,2.38,0,1.69,1.69,0,0,1-1.19,2.88Z"/><path class="cls-2" d="M57.58,78.89A1.69,1.69,0,0,1,55.9,77.2,1.71,1.71,0,0,1,56.39,76a1.75,1.75,0,0,1,2.39,0,1.71,1.71,0,0,1,.49,1.19,1.69,1.69,0,0,1-1.69,1.69Z"/><path class="cls-2" d="M59.17,83.32A1.69,1.69,0,0,1,58,80.44a1.75,1.75,0,0,1,2.39,0,1.67,1.67,0,0,1,0,2.38A1.67,1.67,0,0,1,59.17,83.32Z"/><path class="cls-2" d="M66.13,84.9a1.69,1.69,0,0,1-1.69-1.69,1.67,1.67,0,0,1,.5-1.19,1.73,1.73,0,0,1,2.38,0,1.67,1.67,0,0,1,.5,1.19,1.69,1.69,0,0,1-1.69,1.69Z"/><path class="cls-2" d="M54.11,89.33a1.69,1.69,0,0,1-1.69-1.69,1.71,1.71,0,0,1,.49-1.19,1.75,1.75,0,0,1,2.39,0,1.71,1.71,0,0,1,.49,1.19,1.67,1.67,0,0,1-1.68,1.69Z"/><path class="cls-2" d="M77.83,75.73a1.67,1.67,0,0,1-1.19-.5A1.71,1.71,0,0,1,76.15,74a1.73,1.73,0,0,1,.49-1.2,1.77,1.77,0,0,1,2.39,0,1.73,1.73,0,0,1,.49,1.2,1.69,1.69,0,0,1-1.69,1.69Z"/><path class="cls-2" d="M80.37,67.5a1.69,1.69,0,0,1-1.2-2.88,1.75,1.75,0,0,1,2.39,0,1.71,1.71,0,0,1,.49,1.19,1.69,1.69,0,0,1-1.68,1.69Z"/><path class="cls-2" d="M69.92,66.87a1.67,1.67,0,0,1-1.19-.5,1.71,1.71,0,0,1-.49-1.19A1.69,1.69,0,0,1,68.73,64a1.74,1.74,0,0,1,2.39,0,1.69,1.69,0,0,1-1.2,2.88Z"/><path class="cls-2" d="M82.58,77.94a1.69,1.69,0,0,1-1.19-2.88,1.75,1.75,0,0,1,2.39,0,1.71,1.71,0,0,1,.49,1.19,1.69,1.69,0,0,1-1.69,1.69Z"/><path class="cls-2" d="M85.75,71a1.69,1.69,0,0,1-1.2-2.88,1.75,1.75,0,0,1,2.39,0A1.69,1.69,0,0,1,85.75,71Z"/><path class="cls-2" d="M83.85,91.86a1.73,1.73,0,0,1-1.2-.49,1.71,1.71,0,0,1-.49-1.19,1.73,1.73,0,0,1,.49-1.2A1.75,1.75,0,0,1,85,89a1.69,1.69,0,0,1-1.19,2.88Z"/><path class="cls-2" d="M3.8,55.48A1.69,1.69,0,0,1,2.6,52.6a1.76,1.76,0,0,1,2.39,0,1.75,1.75,0,0,1,.49,1.2A1.69,1.69,0,0,1,3.8,55.48Z"/><path class="cls-2" d="M5.38,57.69a1.69,1.69,0,0,1-1.2-2.88,1.75,1.75,0,0,1,2.39,0A1.67,1.67,0,0,1,7.07,56a1.7,1.7,0,0,1-.5,1.2A1.72,1.72,0,0,1,5.38,57.69Z"/><path class="cls-2" d="M6,69.08a1.69,1.69,0,0,1-1.69-1.69,1.67,1.67,0,0,1,.5-1.19,1.73,1.73,0,0,1,2.38,0,1.67,1.67,0,0,1,.5,1.19A1.69,1.69,0,0,1,6,69.08Z"/><path class="cls-2" d="M10.12,60.22a1.71,1.71,0,0,1-1.19-.49,1.7,1.7,0,0,1,0-2.39,1.75,1.75,0,0,1,2.39,0,1.69,1.69,0,0,1-1.2,2.88Z"/><path class="cls-2" d="M12,64.33a1.68,1.68,0,0,1-1.19-2.88,1.76,1.76,0,0,1,2.39,0,1.73,1.73,0,0,1,.49,1.2,1.71,1.71,0,0,1-.49,1.19A1.73,1.73,0,0,1,12,64.33Z"/><path class="cls-2" d="M1.9,87.12A1.69,1.69,0,0,1,.7,84.24a1.75,1.75,0,0,1,2.39,0,1.67,1.67,0,0,1,0,2.38A1.69,1.69,0,0,1,1.9,87.12Z"/><path class="cls-2" d="M7.28,81.74a1.69,1.69,0,0,1-1.2-2.88,1.75,1.75,0,0,1,2.39,0,1.69,1.69,0,0,1,0,2.38A1.67,1.67,0,0,1,7.28,81.74Z"/><path class="cls-2" d="M79.1,2.64a1.67,1.67,0,0,1-1.19-.5A1.66,1.66,0,0,1,77.41,1a1.7,1.7,0,0,1,.5-1.2,1.76,1.76,0,0,1,2.38,0,1.7,1.7,0,0,1,.5,1.2,1.67,1.67,0,0,1-.5,1.19A1.7,1.7,0,0,1,79.1,2.64Z"/><path class="cls-2" d="M92.07,9.49a2.58,2.58,0,0,1-1.79-.74,2.53,2.53,0,0,1,0-3.58,2.62,2.62,0,0,1,3.58,0,2.51,2.51,0,0,1,0,3.58A2.54,2.54,0,0,1,92.07,9.49Z"/><path class="cls-2" d="M91.44,34.8a2.53,2.53,0,0,1-1.79-4.32,2.62,2.62,0,0,1,3.58,0,2.53,2.53,0,0,1-1.79,4.32Z"/><path class="cls-2" d="M90.49,52.84a2.53,2.53,0,0,1-1.79-4.32,2.62,2.62,0,0,1,3.58,0,2.53,2.53,0,0,1-1.79,4.32Z"/><path class="cls-2" d="M92.07,62a2.58,2.58,0,0,1-1.79-.74,2.54,2.54,0,0,1-.74-1.79,2.58,2.58,0,0,1,.74-1.79,2.62,2.62,0,0,1,3.58,0,2.55,2.55,0,0,1,.75,1.79,2.51,2.51,0,0,1-.75,1.79A2.54,2.54,0,0,1,92.07,62Z"/><path class="cls-2" d="M92.07,70.24a2.53,2.53,0,0,1-1.79-4.32,2.61,2.61,0,0,1,3.58,0,2.51,2.51,0,0,1,0,3.58A2.54,2.54,0,0,1,92.07,70.24Z"/><path class="cls-2" d="M90.17,81.07a2,2,0,0,1-1.39-3.36,2.05,2.05,0,0,1,2.79,0,2,2,0,0,1-1.4,3.36Z"/><path class="cls-2" d="M92.71,16.56a1.69,1.69,0,0,1-1.2-2.88,1.75,1.75,0,0,1,2.39,0,1.69,1.69,0,0,1-1.19,2.88Z"/><path class="cls-2" d="M91.13,27.32a1.69,1.69,0,0,1-1.69-1.69,1.73,1.73,0,0,1,.49-1.2,1.75,1.75,0,0,1,2.39,0,1.7,1.7,0,0,1,0,2.39A1.69,1.69,0,0,1,91.13,27.32Z"/><path class="cls-2" d="M90.81,46.3a1.69,1.69,0,0,1-1.2-2.88,1.75,1.75,0,0,1,2.39,0,1.66,1.66,0,0,1,.49,1.19,1.69,1.69,0,0,1-.49,1.2A1.71,1.71,0,0,1,90.81,46.3Z"/><path class="cls-2" d="M91.44,77a1.68,1.68,0,0,1-1.19-2.88,1.73,1.73,0,0,1,2.38,0,1.67,1.67,0,0,1,.5,1.19A1.67,1.67,0,0,1,91.44,77Z"/><path class="cls-2" d="M90.49,25.31A2.53,2.53,0,0,1,88.7,21a2.62,2.62,0,0,1,3.58,0,2.53,2.53,0,0,1-1.79,4.32Z"/><path class="cls-2" d="M90.49,10.12A2.53,2.53,0,0,1,88.7,5.8a2.62,2.62,0,0,1,3.58,0,2.53,2.53,0,0,1-1.79,4.32Z"/><path class="cls-2" d="M89.23,83.32a1.67,1.67,0,0,1-1.69-1.69A1.71,1.71,0,0,1,88,80.44a1.75,1.75,0,0,1,2.39,0,1.71,1.71,0,0,1,.49,1.19,1.75,1.75,0,0,1-.49,1.2A1.72,1.72,0,0,1,89.23,83.32Z"/><path class="cls-2" d="M89.86,59.09a.85.85,0,0,1-.62-.26.87.87,0,0,1-.26-.61.88.88,0,0,1,1.5-.62.89.89,0,0,1,.25.62.9.9,0,0,1-.25.62A.89.89,0,0,1,89.86,59.09Z"/><path class="cls-2" d="M89.23,72.25A1.69,1.69,0,0,1,88,69.37a1.75,1.75,0,0,1,2.39,0,1.69,1.69,0,0,1,.49,1.19,1.72,1.72,0,0,1-.49,1.19A1.69,1.69,0,0,1,89.23,72.25Z"/><path class="cls-2" d="M89.23,17.19A1.69,1.69,0,0,1,88,14.31a1.75,1.75,0,0,1,2.39,0,1.71,1.71,0,0,1,.49,1.19,1.69,1.69,0,0,1-1.68,1.69Z"/><path class="cls-2" d="M91.13,8a1.74,1.74,0,0,1-1.2-.5,1.71,1.71,0,0,1-.49-1.19,1.73,1.73,0,0,1,.49-1.2,1.77,1.77,0,0,1,2.39,0,1.73,1.73,0,0,1,.49,1.2,1.71,1.71,0,0,1-.49,1.19A1.73,1.73,0,0,1,91.13,8Z"/><path class="cls-2" d="M91.13,37.44a1.67,1.67,0,0,1-1.69-1.69,1.71,1.71,0,0,1,.49-1.19,1.75,1.75,0,0,1,2.39,0,1.71,1.71,0,0,1,.49,1.19,1.75,1.75,0,0,1-.49,1.2A1.72,1.72,0,0,1,91.13,37.44Z"/><path class="cls-2" d="M90.18,39.34A1.69,1.69,0,0,1,89,36.46a1.75,1.75,0,0,1,2.39,0,1.71,1.71,0,0,1,.49,1.19,1.69,1.69,0,0,1-1.68,1.69Z"/><path class="cls-2" d="M86.38,44.08a1.71,1.71,0,0,1-1.19-.49,1.67,1.67,0,0,1-.5-1.19,1.7,1.7,0,0,1,.5-1.2,1.74,1.74,0,0,1,2.38,0,1.7,1.7,0,0,1,.5,1.2,1.67,1.67,0,0,1-.5,1.19A1.71,1.71,0,0,1,86.38,44.08Z"/><path class="cls-2" d="M92.07,42.82a1.69,1.69,0,0,1-1.19-2.88,1.75,1.75,0,0,1,2.39,0,1.69,1.69,0,0,1-1.2,2.88Z"/><path class="cls-2" d="M1,42.82a1.69,1.69,0,0,1-1.19-.49,1.71,1.71,0,0,1-.5-1.2,1.67,1.67,0,0,1,.5-1.19,1.73,1.73,0,0,1,2.38,0,1.67,1.67,0,0,1,0,2.38A1.67,1.67,0,0,1,1,42.82Z"/><path class="cls-2" d="M38.29,36.81a1.69,1.69,0,0,1-1.2-2.88,1.75,1.75,0,0,1,2.39,0,1.69,1.69,0,0,1-1.19,2.88Z"/><path class="cls-2" d="M45.24,36.18a1.69,1.69,0,0,1-1.68-1.69,1.75,1.75,0,0,1,.49-1.2,1.77,1.77,0,0,1,2.39,0,1.7,1.7,0,0,1,0,2.39A1.7,1.7,0,0,1,45.24,36.18Z"/><path class="cls-2" d="M31.32,32.06a1.69,1.69,0,0,1-1.68-1.69,1.71,1.71,0,0,1,.49-1.19,1.75,1.75,0,0,1,2.39,0A1.72,1.72,0,0,1,33,30.37a1.69,1.69,0,0,1-1.69,1.69Z"/><path class="cls-2" d="M42.71,60.26a1.38,1.38,0,0,1-1-.42,1.4,1.4,0,0,1,0-2,1.44,1.44,0,0,1,2,0,1.41,1.41,0,0,1-1,2.4Z"/><path class="cls-2" d="M20.57,87.47a1.42,1.42,0,0,1-1.41-1.41,1.41,1.41,0,0,1,.41-1,1.44,1.44,0,0,1,2,0,1.41,1.41,0,0,1,.41,1,1.43,1.43,0,0,1-.41,1A1.41,1.41,0,0,1,20.57,87.47Z"/><path class="cls-2" d="M62.65,48.52a1.7,1.7,0,0,1-1.2-2.89,1.77,1.77,0,0,1,2.39,0,1.7,1.7,0,0,1,.5,1.2,1.67,1.67,0,0,1-.5,1.19A1.72,1.72,0,0,1,62.65,48.52Z"/><path class="cls-2" d="M61.7,54.21a1.67,1.67,0,0,1-1.19-.5,1.66,1.66,0,0,1-.5-1.19,1.71,1.71,0,0,1,.49-1.19,1.75,1.75,0,0,1,2.39,0,1.69,1.69,0,0,1-1.19,2.88Z"/><path class="cls-2" d="M65.81,54.52A1.71,1.71,0,0,1,64.62,54a1.67,1.67,0,0,1-.5-1.19,1.7,1.7,0,0,1,.5-1.2,1.76,1.76,0,0,1,2.39,0,1.73,1.73,0,0,1,.49,1.2,1.69,1.69,0,0,1-1.69,1.68Z"/><path class="cls-2" d="M13.6,92.53a1.4,1.4,0,0,1-1.4-1.41,1.41,1.41,0,0,1,.41-1,1.45,1.45,0,0,1,2,0,1.41,1.41,0,0,1,.41,1,1.4,1.4,0,0,1-1.41,1.41Z"/><path class="cls-2" d="M20.25,7.42a1.41,1.41,0,0,1-1-2.4,1.45,1.45,0,0,1,2,0,1.4,1.4,0,0,1,0,2A1.38,1.38,0,0,1,20.25,7.42Z"/><path class="cls-2" d="M25.63,3.94a1.45,1.45,0,0,1-1-.41,1.43,1.43,0,0,1-.41-1,1.41,1.41,0,0,1,.41-1,1.44,1.44,0,0,1,2,0,1.41,1.41,0,0,1,.41,1,1.43,1.43,0,0,1-.41,1A1.41,1.41,0,0,1,25.63,3.94Z"/><path class="cls-2" d="M20.88,6.15a1.41,1.41,0,0,1-1-2.4,1.46,1.46,0,0,1,2,0,1.45,1.45,0,0,1,.41,1,1.38,1.38,0,0,1-.42,1A1.41,1.41,0,0,1,20.88,6.15Z"/><path class="cls-2" d="M22.15,84.3a1.4,1.4,0,0,1-1.41-1.4,1.43,1.43,0,0,1,.41-1,1.46,1.46,0,0,1,2,0,1.43,1.43,0,0,1,.41,1,1.4,1.4,0,0,1-1.4,1.4Z"/><path class="cls-2" d="M72.77,25.42a1.67,1.67,0,0,1-1.19-.5,1.71,1.71,0,0,1-.49-1.19,1.69,1.69,0,0,1,.49-1.19,1.76,1.76,0,0,1,2.39,0,1.73,1.73,0,0,1,.49,1.2,1.69,1.69,0,0,1-1.69,1.69Z"/><path class="cls-2" d="M64.23,23.2a1.69,1.69,0,0,1-1.69-1.69,1.67,1.67,0,0,1,.5-1.19,1.73,1.73,0,0,1,2.38,0,1.67,1.67,0,0,1,.5,1.19,1.69,1.69,0,0,1-1.69,1.69Z"/><path class="cls-2" d="M70.56,44.08a1.73,1.73,0,0,1-1.2-.49,1.71,1.71,0,0,1-.49-1.19,1.73,1.73,0,0,1,.49-1.2,1.76,1.76,0,0,1,2.39,0,1.7,1.7,0,0,1,.5,1.2,1.67,1.67,0,0,1-.5,1.19A1.71,1.71,0,0,1,70.56,44.08Z"/><path class="cls-2" d="M81.32,60.22a1.69,1.69,0,0,1-1.2-2.88,1.75,1.75,0,0,1,2.39,0,1.7,1.7,0,0,1,0,2.39A1.71,1.71,0,0,1,81.32,60.22Z"/><path class="cls-2" d="M76.89,53.58a1.69,1.69,0,0,1-1.2-2.88,1.74,1.74,0,0,1,2.39,0,1.69,1.69,0,0,1,.49,1.19,1.69,1.69,0,0,1-1.68,1.69Z"/><path class="cls-2" d="M20.25,27.31a1.69,1.69,0,0,1-1.69-1.68,1.73,1.73,0,0,1,.49-1.2,1.76,1.76,0,0,1,2.39,0,1.7,1.7,0,0,1,.5,1.2,1.69,1.69,0,0,1-1.69,1.68Z"/><path class="cls-2" d="M48.5,70.81a1.71,1.71,0,0,1-1.69-1.69,1.72,1.72,0,0,1,.49-1.19,1.75,1.75,0,0,1,2.39,0,1.69,1.69,0,0,1-1.19,2.88Z"/><path class="cls-2" d="M46,67.31a1.69,1.69,0,0,1-1.69-1.69,1.72,1.72,0,0,1,.49-1.19,1.75,1.75,0,0,1,2.39,0,1.67,1.67,0,0,1,.5,1.19A1.69,1.69,0,0,1,46,67.31Z"/><path class="cls-2" d="M52.5,68.31a1.69,1.69,0,0,1-1.69-1.69,1.67,1.67,0,0,1,.5-1.19,1.73,1.73,0,0,1,2.38,0,1.67,1.67,0,0,1,.5,1.19,1.69,1.69,0,0,1-1.69,1.69Z"/><path class="cls-2" d="M45.5,3.31a1.69,1.69,0,0,1-1.69-1.69,1.67,1.67,0,0,1,.5-1.19,1.73,1.73,0,0,1,2.38,0,1.68,1.68,0,0,1,0,2.39A1.71,1.71,0,0,1,45.5,3.31Z"/><path class="cls-2" d="M53.5,21.31a1.69,1.69,0,0,1-1.69-1.69,1.67,1.67,0,0,1,.5-1.19,1.73,1.73,0,0,1,2.38,0,1.67,1.67,0,0,1,.5,1.19,1.69,1.69,0,0,1-1.69,1.69Z"/><path class="cls-2" d="M48,14.31a1.69,1.69,0,0,1-1.69-1.69,1.67,1.67,0,0,1,.5-1.19,1.73,1.73,0,0,1,2.38,0,1.67,1.67,0,0,1,.5,1.19A1.69,1.69,0,0,1,48,14.31Z"/><path class="cls-2" d="M61,30.81a1.69,1.69,0,0,1-1.69-1.69,1.67,1.67,0,0,1,.5-1.19,1.73,1.73,0,0,1,2.38,0,1.67,1.67,0,0,1,.5,1.19A1.69,1.69,0,0,1,61,30.81Z"/><path class="cls-2" d="M69,35.81a1.69,1.69,0,0,1-1.69-1.69,1.67,1.67,0,0,1,.5-1.19,1.73,1.73,0,0,1,2.38,0,1.67,1.67,0,0,1,.5,1.19A1.69,1.69,0,0,1,69,35.81Z"/><path class="cls-2" d="M75,30.31a1.69,1.69,0,0,1-1.69-1.69,1.67,1.67,0,0,1,.5-1.19,1.73,1.73,0,0,1,2.38,0,1.67,1.67,0,0,1,.5,1.19A1.69,1.69,0,0,1,75,30.31Z"/><path class="cls-2" d="M25.5,67.81a1.69,1.69,0,0,1-1.69-1.69,1.71,1.71,0,0,1,.49-1.19,1.75,1.75,0,0,1,2.39,0,1.67,1.67,0,0,1,.5,1.19,1.69,1.69,0,0,1-1.69,1.69Z"/><path class="cls-2" d="M16,70.31a1.69,1.69,0,0,1-1.69-1.69,1.67,1.67,0,0,1,.5-1.19,1.73,1.73,0,0,1,2.38,0,1.67,1.67,0,0,1,.5,1.19A1.69,1.69,0,0,1,16,70.31Z"/><path class="cls-2" d="M12,75.31a1.69,1.69,0,0,1-1.69-1.69,1.67,1.67,0,0,1,.5-1.19,1.73,1.73,0,0,1,2.38,0,1.67,1.67,0,0,1,.5,1.19A1.69,1.69,0,0,1,12,75.31Z"/><path class="cls-2" d="M85.5,56.31a1.69,1.69,0,0,1-1.69-1.69,1.67,1.67,0,0,1,.5-1.19,1.73,1.73,0,0,1,2.38,0,1.67,1.67,0,0,1,.5,1.19,1.69,1.69,0,0,1-1.69,1.69Z"/><path class="cls-2" d="M91.5,55.5a.85.85,0,0,1-.62-.26.9.9,0,0,1-.26-.62.87.87,0,0,1,.26-.61.91.91,0,0,1,1.24,0,.93.93,0,0,1,.26.62.9.9,0,0,1-.26.62A.85.85,0,0,1,91.5,55.5Z"/><path class="cls-2" d="M.38,55.5a.88.88,0,0,1-.63-.26.89.89,0,0,1-.25-.62A.88.88,0,0,1-.25,54,.9.9,0,0,1,1,54a.83.83,0,0,1,.26.61.85.85,0,0,1-.26.62A.87.87,0,0,1,.38,55.5Z"/><path class="cls-2" d="M10,7.5a.85.85,0,0,1-.62-.26.88.88,0,0,1-.26-.62A.88.88,0,0,1,10.62,6a.86.86,0,0,1,.25.61.89.89,0,0,1-.25.62A.87.87,0,0,1,10,7.5Z"/><path class="cls-2" d="M11.5,14.5a.87.87,0,1,1,.88-.88.86.86,0,0,1-.27.62A.85.85,0,0,1,11.5,14.5Z"/><path class="cls-2" d="M9.5,10.5a.85.85,0,0,1-.62-.26.88.88,0,0,1-.26-.62A.88.88,0,0,1,10.12,9a.9.9,0,0,1,.25.62.89.89,0,0,1-.25.62A.87.87,0,0,1,9.5,10.5Z"/><path class="cls-2" d="M9,13.5a.85.85,0,0,1-.62-.26.9.9,0,0,1-.26-.62A.88.88,0,0,1,9.62,12a.9.9,0,0,1,.25.62.89.89,0,0,1-.25.62A.87.87,0,0,1,9,13.5Z"/><path class="cls-2" d="M27,17.5a.85.85,0,0,1-.62-.26.86.86,0,0,1,0-1.23.91.91,0,0,1,1.24,0,.92.92,0,0,1,.25.62.9.9,0,0,1-.25.62A.87.87,0,0,1,27,17.5Z"/><path class="cls-2" d="M80,22a.85.85,0,0,1-.62-.26.9.9,0,0,1-.26-.62.87.87,0,0,1,.26-.61.9.9,0,0,1,1.24,0,.87.87,0,0,1,.26.61.9.9,0,0,1-.26.62A.85.85,0,0,1,80,22Z"/><path class="cls-2" d="M80.5,25.5a.85.85,0,0,1-.62-.26.9.9,0,0,1-.26-.62.88.88,0,0,1,1.76,0,.9.9,0,0,1-.26.62A.85.85,0,0,1,80.5,25.5Z"/><path class="cls-2" d="M81.5,34.5a.85.85,0,0,1-.62-.26.88.88,0,0,1,0-1.23.88.88,0,0,1,1.5.61.9.9,0,0,1-.26.62A.85.85,0,0,1,81.5,34.5Z"/><path class="cls-2" d="M7,4.31A1.69,1.69,0,0,1,5.31,2.62,1.71,1.71,0,0,1,5.8,1.43a1.75,1.75,0,0,1,2.39,0A1.69,1.69,0,0,1,7,4.31Z"/><path class="cls-2" d="M3,3.41a1.73,1.73,0,0,1-1.2-.49,1.73,1.73,0,0,1-.49-1.2A1.67,1.67,0,0,1,1.81.53a1.73,1.73,0,0,1,2.38,0,1.68,1.68,0,0,1,0,2.39A1.71,1.71,0,0,1,3,3.41Z"/><path class="cls-2" d="M52.5,86.31a1.69,1.69,0,0,1-1.69-1.69,1.67,1.67,0,0,1,.5-1.19,1.73,1.73,0,0,1,2.38,0,1.67,1.67,0,0,1,.5,1.19,1.69,1.69,0,0,1-1.69,1.69Z"/><path class="cls-2" d="M47.5,75.31a1.69,1.69,0,0,1-1.69-1.69,1.67,1.67,0,0,1,.5-1.19,1.73,1.73,0,0,1,2.38,0,1.69,1.69,0,0,1-1.19,2.88Z"/><path class="cls-2" d="M61,4.31a1.69,1.69,0,0,1-1.69-1.69,1.67,1.67,0,0,1,.5-1.19,1.73,1.73,0,0,1,2.38,0,1.67,1.67,0,0,1,.5,1.19A1.69,1.69,0,0,1,61,4.31Z"/><path class="cls-2" d="M62.5,10.81a1.68,1.68,0,0,1-1.19-2.88,1.73,1.73,0,0,1,2.38,0,1.67,1.67,0,0,1,.5,1.19,1.69,1.69,0,0,1-1.69,1.69Z"/><path class="cls-2" d="M62.5,14.81a1.68,1.68,0,0,1-1.19-2.88,1.73,1.73,0,0,1,2.38,0,1.67,1.67,0,0,1,.5,1.19,1.69,1.69,0,0,1-1.69,1.69Z"/><path class="cls-2" d="M69,31.56a1.69,1.69,0,0,1-1.69-1.69,1.67,1.67,0,0,1,.5-1.19,1.73,1.73,0,0,1,2.38,0,1.67,1.67,0,0,1,.5,1.19A1.69,1.69,0,0,1,69,31.56Z"/><path class="cls-2" d="M28.25,24.31a1.69,1.69,0,0,1-1.69-1.69,1.72,1.72,0,0,1,.49-1.19,1.75,1.75,0,0,1,2.39,0,1.67,1.67,0,0,1,.5,1.19,1.7,1.7,0,0,1-.5,1.2A1.72,1.72,0,0,1,28.25,24.31Z"/><path class="cls-2" d="M30.75,23.31a1.69,1.69,0,0,1-1.69-1.69,1.67,1.67,0,0,1,.5-1.19,1.73,1.73,0,0,1,2.38,0,1.69,1.69,0,0,1-1.19,2.88Z"/><path class="cls-2" d="M33.25,8.56a1.69,1.69,0,0,1-1.69-1.69,1.71,1.71,0,0,1,.49-1.19,1.75,1.75,0,0,1,2.39,0,1.67,1.67,0,0,1,.5,1.19,1.69,1.69,0,0,1-1.69,1.69Z"/><path class="cls-2" d="M22,46.81a1.69,1.69,0,0,1-1.69-1.69,1.71,1.71,0,0,1,.49-1.19,1.75,1.75,0,0,1,2.39,0,1.67,1.67,0,0,1,.5,1.19A1.69,1.69,0,0,1,22,46.81Z"/><path class="cls-2" d="M22,43.81a1.69,1.69,0,0,1-1.69-1.69,1.72,1.72,0,0,1,.49-1.19,1.75,1.75,0,0,1,2.39,0A1.69,1.69,0,0,1,22,43.81Z"/><path class="cls-2" d="M18,47.31a1.75,1.75,0,0,1-1.2-.49,1.73,1.73,0,0,1-.49-1.2,1.71,1.71,0,0,1,.49-1.19,1.75,1.75,0,0,1,2.39,0,1.67,1.67,0,0,1,.5,1.19A1.69,1.69,0,0,1,18,47.31Z"/><path class="cls-2" d="M29.5,66.81a1.69,1.69,0,0,1-1.69-1.69,1.67,1.67,0,0,1,.5-1.19,1.73,1.73,0,0,1,2.38,0,1.69,1.69,0,0,1-1.19,2.88Z"/><path class="cls-2" d="M32.25,64.56a1.69,1.69,0,0,1-1.69-1.69,1.67,1.67,0,0,1,.5-1.19,1.73,1.73,0,0,1,2.38,0,1.67,1.67,0,0,1,.5,1.19,1.69,1.69,0,0,1-1.69,1.69Z"/><path class="cls-2" d="M32.5,66.81a1.69,1.69,0,0,1-1.69-1.69,1.71,1.71,0,0,1,.49-1.19,1.75,1.75,0,0,1,2.39,0,1.69,1.69,0,0,1-1.19,2.88Z"/><path class="cls-2" d="M4.75,79.81a1.69,1.69,0,0,1-1.69-1.69,1.67,1.67,0,0,1,.5-1.19,1.73,1.73,0,0,1,2.38,0,1.69,1.69,0,0,1-1.19,2.88Z"/><path class="cls-2" d="M7.5,79.06a1.69,1.69,0,0,1-1.2-2.88,1.75,1.75,0,0,1,2.39,0,1.67,1.67,0,0,1,.5,1.19A1.69,1.69,0,0,1,7.5,79.06Z"/><path class="cls-2" d="M6,42.81a1.69,1.69,0,0,1-1.2-2.88,1.75,1.75,0,0,1,2.39,0,1.67,1.67,0,0,1,.5,1.19A1.69,1.69,0,0,1,6,42.81Z"/><path class="cls-2" d="M5,44.31a1.69,1.69,0,0,1-1.2-2.88,1.75,1.75,0,0,1,2.39,0,1.67,1.67,0,0,1,.5,1.19A1.69,1.69,0,0,1,5,44.31Z"/><path class="cls-2" d="M60.75,61.81a1.69,1.69,0,0,1-1.69-1.69,1.67,1.67,0,0,1,.5-1.19,1.73,1.73,0,0,1,2.38,0,1.67,1.67,0,0,1,.5,1.19,1.69,1.69,0,0,1-1.69,1.69Z"/><path class="cls-2" d="M58.75,59.81a1.67,1.67,0,0,1-1.19-.5,1.66,1.66,0,0,1-.5-1.19,1.67,1.67,0,0,1,.5-1.19,1.73,1.73,0,0,1,2.38,0,1.67,1.67,0,0,1,.5,1.19,1.69,1.69,0,0,1-1.69,1.69Z"/><path class="cls-2" d="M58.25,62.31a1.68,1.68,0,0,1-1.19-2.88,1.73,1.73,0,0,1,2.38,0,1.69,1.69,0,0,1-1.19,2.88Z"/><path class="cls-2" d="M69.75,77.81a1.69,1.69,0,0,1-1.69-1.69,1.67,1.67,0,0,1,.5-1.19,1.73,1.73,0,0,1,2.38,0,1.67,1.67,0,0,1,.5,1.19,1.69,1.69,0,0,1-1.69,1.69Z"/><path class="cls-2" d="M70.25,80.06a1.68,1.68,0,0,1-1.19-2.88,1.73,1.73,0,0,1,2.38,0,1.67,1.67,0,0,1,.5,1.19,1.69,1.69,0,0,1-1.69,1.69Z"/><path class="cls-2" d="M72.25,78.56a1.69,1.69,0,0,1-1.69-1.69,1.67,1.67,0,0,1,.5-1.19,1.73,1.73,0,0,1,2.38,0,1.67,1.67,0,0,1,.5,1.19,1.69,1.69,0,0,1-1.69,1.69Z"/><path class="cls-2" d="M81.5,86.06a1.69,1.69,0,0,1-1.69-1.69,1.67,1.67,0,0,1,.5-1.19,1.73,1.73,0,0,1,2.38,0,1.67,1.67,0,0,1,.5,1.19,1.69,1.69,0,0,1-1.69,1.69Z"/><path class="cls-2" d="M63.5,89.31a1.69,1.69,0,0,1-1.69-1.69,1.67,1.67,0,0,1,.5-1.19,1.73,1.73,0,0,1,2.38,0,1.67,1.67,0,0,1,.5,1.19,1.69,1.69,0,0,1-1.69,1.69Z"/><path class="cls-2" d="M59.75,70.06a1.69,1.69,0,0,1-1.69-1.69,1.67,1.67,0,0,1,.5-1.19,1.73,1.73,0,0,1,2.38,0,1.67,1.67,0,0,1,.5,1.19,1.69,1.69,0,0,1-1.69,1.69Z"/><path class="cls-2" d="M82.5,30.81a1.69,1.69,0,0,1-1.69-1.69,1.67,1.67,0,0,1,.5-1.19,1.73,1.73,0,0,1,2.38,0,1.67,1.67,0,0,1,.5,1.19,1.69,1.69,0,0,1-1.69,1.69Z"/><path class="cls-2" d="M87.5,28.31a1.68,1.68,0,0,1-1.19-2.88,1.73,1.73,0,0,1,2.38,0,1.67,1.67,0,0,1,.5,1.19,1.69,1.69,0,0,1-1.69,1.69Z"/><path class="cls-2" d="M8.05,28.65a1.69,1.69,0,0,1-1.19-2.88,1.75,1.75,0,0,1,2.39,0A1.69,1.69,0,0,1,9.74,27a1.69,1.69,0,0,1-1.69,1.69Z"/><path class="cls-2" d="M9.3,28.9a1.67,1.67,0,0,1-1.19-.5,1.72,1.72,0,0,1-.5-1.19A1.7,1.7,0,0,1,8.11,26a1.75,1.75,0,0,1,2.39,0A1.69,1.69,0,0,1,11,27.21,1.69,1.69,0,0,1,9.3,28.9Z"/><path class="cls-2" d="M16.8,14.4a1.67,1.67,0,0,1-1.19-.5,1.69,1.69,0,0,1,0-2.38,1.75,1.75,0,0,1,2.39,0,1.69,1.69,0,0,1-1.2,2.88Z"/><path class="cls-2" d="M84.8,76.4a1.69,1.69,0,0,1-1.19-2.88,1.75,1.75,0,0,1,2.39,0,1.69,1.69,0,0,1,.49,1.19A1.69,1.69,0,0,1,84.8,76.4Z"/><path class="cls-2" d="M84.05,91.15a1.69,1.69,0,0,1-1.19-2.88,1.74,1.74,0,0,1,2.39,0,1.69,1.69,0,0,1,.49,1.19,1.69,1.69,0,0,1-1.69,1.69Z"/><path class="cls-2" d="M57.8,91.65a1.69,1.69,0,0,1-1.19-2.88,1.75,1.75,0,0,1,2.39,0A1.69,1.69,0,0,1,59.49,90a1.69,1.69,0,0,1-1.69,1.69Z"/><path class="cls-2" d="M54.6,9a1.68,1.68,0,0,1-1.19-2.88,1.73,1.73,0,0,1,2.38,0A1.69,1.69,0,0,1,54.6,9Z"/><path class="cls-2" d="M53.85,93a1.68,1.68,0,0,1-1.19-2.88,1.73,1.73,0,0,1,2.38,0,1.67,1.67,0,0,1,.5,1.19A1.69,1.69,0,0,1,53.85,93Z"/><path class="cls-2" d="M37.5,66.16A2.54,2.54,0,0,1,35,63.62a2.58,2.58,0,0,1,.74-1.79,2.62,2.62,0,0,1,3.58,0A2.58,2.58,0,0,1,40,63.62a2.54,2.54,0,0,1-2.53,2.54Z"/><path class="cls-2" d="M43.25,53.41a2.54,2.54,0,0,1-1.79-4.33,2.62,2.62,0,0,1,3.58,0,2.58,2.58,0,0,1,.74,1.79A2.54,2.54,0,0,1,45,52.66,2.57,2.57,0,0,1,43.25,53.41Z"/><path class="cls-2" d="M74.75,20.9A2.53,2.53,0,0,1,73,16.58a2.62,2.62,0,0,1,3.58,0,2.53,2.53,0,0,1-1.79,4.32Z"/><path class="cls-2" d="M.94,9.49A2.58,2.58,0,0,1-.85,8.75a2.56,2.56,0,0,1,0-3.58,2.62,2.62,0,0,1,3.58,0,2.51,2.51,0,0,1,0,3.58A2.54,2.54,0,0,1,.94,9.49Z"/><path class="cls-2" d="M.31,34.8a2.53,2.53,0,0,1-2.53-2.53,2.56,2.56,0,0,1,.74-1.79,2.62,2.62,0,0,1,3.58,0,2.56,2.56,0,0,1,.74,1.79,2.54,2.54,0,0,1-.74,1.79A2.54,2.54,0,0,1,.31,34.8Z"/><path class="cls-2" d="M-.64,52.84a2.56,2.56,0,0,1-1.79-.74,2.54,2.54,0,0,1-.74-1.79,2.54,2.54,0,0,1,.74-1.79,2.62,2.62,0,0,1,3.58,0,2.5,2.5,0,0,1,.74,1.79,2.5,2.5,0,0,1-.74,1.79A2.54,2.54,0,0,1-.64,52.84Z"/><path class="cls-2" d="M.94,62a2.58,2.58,0,0,1-1.79-.74,2.53,2.53,0,0,1-.73-1.79,2.57,2.57,0,0,1,.73-1.79,2.62,2.62,0,0,1,3.58,0,2.55,2.55,0,0,1,.75,1.79,2.51,2.51,0,0,1-.75,1.79A2.54,2.54,0,0,1,.94,62Z"/><path class="cls-2" d="M.94,70.24A2.56,2.56,0,0,1-.85,69.5a2.56,2.56,0,0,1,0-3.58,2.61,2.61,0,0,1,3.58,0,2.51,2.51,0,0,1,0,3.58A2.54,2.54,0,0,1,.94,70.24Z"/><path class="cls-2" d="M-1,81.07a2,2,0,0,1-1.39-.58,2,2,0,0,1-.57-1.39,2,2,0,0,1,.57-1.39,2.05,2.05,0,0,1,2.79,0A2,2,0,0,1,1,79.1a2,2,0,0,1-.57,1.39A2,2,0,0,1-1,81.07Z"/><path class="cls-2" d="M1.58,16.56a1.69,1.69,0,0,1-1.2-2.88,1.75,1.75,0,0,1,2.39,0,1.67,1.67,0,0,1,0,2.38A1.67,1.67,0,0,1,1.58,16.56Z"/><path class="cls-2" d="M0,27.32a1.7,1.7,0,0,1-1.2-.5,1.71,1.71,0,0,1-.49-1.19,1.73,1.73,0,0,1,.49-1.2,1.75,1.75,0,0,1,2.39,0,1.73,1.73,0,0,1,.49,1.2,1.72,1.72,0,0,1-.49,1.19A1.67,1.67,0,0,1,0,27.32Z"/><path class="cls-2" d="M-.32,46.3a1.71,1.71,0,0,1-1.19-.49,1.7,1.7,0,0,1-.5-1.2,1.71,1.71,0,0,1,.49-1.19,1.76,1.76,0,0,1,2.4,0,1.7,1.7,0,0,1,.48,1.19,1.72,1.72,0,0,1-.48,1.2A1.73,1.73,0,0,1-.32,46.3Z"/><path class="cls-2" d="M.31,77A1.69,1.69,0,0,1-1.38,75.3a1.69,1.69,0,0,1,.5-1.19,1.73,1.73,0,0,1,2.38,0A1.67,1.67,0,0,1,2,75.3a1.73,1.73,0,0,1-.49,1.2A1.73,1.73,0,0,1,.31,77Z"/><path class="cls-2" d="M-.64,25.31a2.56,2.56,0,0,1-1.79-.74,2.54,2.54,0,0,1-.74-1.79A2.56,2.56,0,0,1-2.43,21a2.62,2.62,0,0,1,3.58,0,2.5,2.5,0,0,1,.74,1.79,2.5,2.5,0,0,1-.74,1.79A2.54,2.54,0,0,1-.64,25.31Z"/><path class="cls-2" d="M-.64,10.12a2.56,2.56,0,0,1-1.79-.74,2.54,2.54,0,0,1-.74-1.79A2.56,2.56,0,0,1-2.43,5.8a2.62,2.62,0,0,1,3.58,0,2.5,2.5,0,0,1,.74,1.79,2.5,2.5,0,0,1-.74,1.79A2.54,2.54,0,0,1-.64,10.12Z"/><path class="cls-2" d="M0,8a1.74,1.74,0,0,1-1.2-.5,1.71,1.71,0,0,1-.49-1.19,1.73,1.73,0,0,1,.49-1.2,1.77,1.77,0,0,1,2.39,0,1.73,1.73,0,0,1,.49,1.2,1.71,1.71,0,0,1-.49,1.19A1.72,1.72,0,0,1,0,8Z"/><path class="cls-2" d="M0,37.44A1.73,1.73,0,0,1-1.2,37a1.73,1.73,0,0,1-.49-1.2,1.71,1.71,0,0,1,.49-1.19,1.75,1.75,0,0,1,2.39,0,1.71,1.71,0,0,1,.49,1.19A1.75,1.75,0,0,1,1.19,37,1.71,1.71,0,0,1,0,37.44Z"/><path class="cls-2" d="M-.95,39.34a1.7,1.7,0,0,1-1.2-.5,1.69,1.69,0,0,1-.49-1.19,1.71,1.71,0,0,1,.49-1.19,1.75,1.75,0,0,1,2.39,0,1.71,1.71,0,0,1,.49,1.19,1.69,1.69,0,0,1-.49,1.19A1.69,1.69,0,0,1-.95,39.34Z"/><path class="cls-2" d="M.94,42.82a1.69,1.69,0,0,1-1.19-.5,1.69,1.69,0,0,1,0-2.38,1.75,1.75,0,0,1,2.39,0,1.69,1.69,0,0,1,0,2.38A1.7,1.7,0,0,1,.94,42.82Z"/><path class="cls-2" d="M.38,55.5a.88.88,0,0,1-.63-.26.9.9,0,0,1-.26-.62A.87.87,0,0,1-.25,54,.91.91,0,0,1,1,54a.93.93,0,0,1,.26.62.9.9,0,0,1-.26.62A.85.85,0,0,1,.38,55.5Z"/><path class="cls-2" d="M9.49.07A2,2,0,0,1,8.1-.5a2,2,0,0,1-.58-1.4A2,2,0,0,1,8.1-3.29a2,2,0,0,1,2.78,0,2,2,0,0,1,.58,1.39,2,2,0,0,1-.58,1.4A2,2,0,0,1,9.49.07Z"/><path class="cls-2" d="M47.15.32a2.53,2.53,0,0,1-1.79-.74,2.51,2.51,0,0,1-.75-1.79A2.51,2.51,0,0,1,45.36-4a2.61,2.61,0,0,1,3.57,0,2.54,2.54,0,0,1,.74,1.79,2.54,2.54,0,0,1-.74,1.79A2.54,2.54,0,0,1,47.15.32Z"/><path class="cls-2" d="M32.91,1.27a2.59,2.59,0,0,1-1.8-.74,2.56,2.56,0,0,1-.74-1.79A2.54,2.54,0,0,1,31.11-3a2.62,2.62,0,0,1,3.58,0,2.51,2.51,0,0,1,.75,1.79A2.51,2.51,0,0,1,34.69.53,2.54,2.54,0,0,1,32.91,1.27Z"/><path class="cls-2" d="M75.62.64A2.56,2.56,0,0,1,73.83-.1a2.59,2.59,0,0,1-.74-1.8,2.52,2.52,0,0,1,.74-1.78,2.6,2.6,0,0,1,3.58,0,2.54,2.54,0,0,1,.74,1.78,2.59,2.59,0,0,1-.74,1.8A2.54,2.54,0,0,1,75.62.64Z"/><path class="cls-2" d="M7,.74A1.71,1.71,0,0,1,5.77.25a1.69,1.69,0,0,1-.5-1.19,1.73,1.73,0,0,1,.49-1.2,1.75,1.75,0,0,1,2.39,0,1.7,1.7,0,0,1,.5,1.2A1.69,1.69,0,0,1,8.15.25,1.72,1.72,0,0,1,7,.74Z"/><path class="cls-2" d="M50.31,2.32a1.73,1.73,0,0,1-1.2-.49A1.72,1.72,0,0,1,48.62.64a1.73,1.73,0,0,1,.49-1.2,1.76,1.76,0,0,1,2.39,0A1.7,1.7,0,0,1,52,.64a1.69,1.69,0,0,1-.5,1.19A1.71,1.71,0,0,1,50.31,2.32Z"/><path class="cls-2" d="M59.48.74A1.72,1.72,0,0,1,58.29.25a1.73,1.73,0,0,1-.49-1.2,1.72,1.72,0,0,1,.49-1.19,1.75,1.75,0,0,1,2.39,0,1.72,1.72,0,0,1,.49,1.19,1.73,1.73,0,0,1-.49,1.2A1.73,1.73,0,0,1,59.48.74Z"/><path class="cls-2" d="M67.71.74A1.71,1.71,0,0,1,66.52.25,1.69,1.69,0,0,1,66-.94a1.73,1.73,0,0,1,.49-1.2,1.76,1.76,0,0,1,2.39,0,1.7,1.7,0,0,1,.5,1.2A1.69,1.69,0,0,1,68.9.25,1.71,1.71,0,0,1,67.71.74Z"/><path class="cls-2" d="M79.1,2.64a1.67,1.67,0,0,1-1.19-.5A1.66,1.66,0,0,1,77.41,1a1.67,1.67,0,0,1,.5-1.19,1.73,1.73,0,0,1,2.38,0A1.67,1.67,0,0,1,80.79,1,1.69,1.69,0,0,1,79.1,2.64Z"/><path class="cls-2" d="M89.23,2.64A1.69,1.69,0,0,1,87.54,1,1.71,1.71,0,0,1,88-.24a1.75,1.75,0,0,1,2.39,0A1.71,1.71,0,0,1,90.91,1a1.69,1.69,0,0,1-1.68,1.69Z"/><path class="cls-2" d="M76.25,4.12a2.58,2.58,0,0,1-1.79-.74,2.57,2.57,0,0,1-.74-1.8A2.54,2.54,0,0,1,74.46-.2,2.61,2.61,0,0,1,78-.21a2.58,2.58,0,0,1,.74,1.79A2.59,2.59,0,0,1,78,3.38,2.54,2.54,0,0,1,76.25,4.12Z"/><path class="cls-2" d="M65.5,2.53a2.54,2.54,0,0,1-1.79-.74A2.54,2.54,0,0,1,63,0a2.56,2.56,0,0,1,.74-1.79,2.61,2.61,0,0,1,3.57,0A2.53,2.53,0,0,1,68,0a2.51,2.51,0,0,1-.75,1.79A2.54,2.54,0,0,1,65.5,2.53Z"/><path class="cls-2" d="M36.07,2a1.67,1.67,0,0,1-1.19-.5,1.67,1.67,0,0,1-.5-1.19,1.66,1.66,0,0,1,.5-1.19,1.73,1.73,0,0,1,2.38,0,1.66,1.66,0,0,1,.5,1.19,1.67,1.67,0,0,1-.5,1.19A1.67,1.67,0,0,1,36.07,2Z"/><path class="cls-2" d="M22.78,2.32a1.71,1.71,0,0,1-1.19-.49,1.69,1.69,0,0,1-.5-1.19,1.7,1.7,0,0,1,.5-1.2A1.73,1.73,0,0,1,24-.56a1.7,1.7,0,0,1,.5,1.2A1.69,1.69,0,0,1,24,1.83,1.71,1.71,0,0,1,22.78,2.32Z"/><path class="cls-2" d="M83.85.74a1.73,1.73,0,0,1-1.2-.49,1.71,1.71,0,0,1-.49-1.19,1.73,1.73,0,0,1,.49-1.2,1.75,1.75,0,0,1,2.39,0,1.73,1.73,0,0,1,.49,1.2A1.72,1.72,0,0,1,85,.25,1.72,1.72,0,0,1,83.85.74Z"/><path class="cls-2" d="M13.6,1.41a1.43,1.43,0,0,1-1-.41,1.43,1.43,0,0,1-.41-1,1.41,1.41,0,0,1,.41-1,1.45,1.45,0,0,1,2,0A1.41,1.41,0,0,1,15,0a1.43,1.43,0,0,1-.41,1A1.43,1.43,0,0,1,13.6,1.41Z"/><path class="cls-2" d="M84.05,0a1.69,1.69,0,0,1-1.19-.5,1.71,1.71,0,0,1-.49-1.19,1.71,1.71,0,0,1,.49-1.19,1.74,1.74,0,0,1,2.39,0,1.69,1.69,0,0,1,.49,1.19,1.71,1.71,0,0,1-.49,1.19A1.7,1.7,0,0,1,84.05,0Z"/><path class="cls-2" d="M57.8.53A1.69,1.69,0,0,1,56.61,0a1.71,1.71,0,0,1-.49-1.19,1.71,1.71,0,0,1,.49-1.19,1.75,1.75,0,0,1,2.39,0,1.69,1.69,0,0,1,.49,1.19A1.71,1.71,0,0,1,59,0,1.7,1.7,0,0,1,57.8.53Z"/><path class="cls-2" d="M53.85,1.87a1.71,1.71,0,0,1-1.19-.49,1.7,1.7,0,0,1-.5-1.2A1.69,1.69,0,0,1,52.66-1,1.73,1.73,0,0,1,55-1a1.67,1.67,0,0,1,.5,1.19,1.7,1.7,0,0,1-.5,1.2A1.71,1.71,0,0,1,53.85,1.87Z"/></pattern></defs><title>logod</title><g id="Calque_2" data-name="Calque 2"><g id="Calque_1_-_copie" data-name="Calque 1 - copie"><g id="Calque_2-2" data-name="Calque 2"><g id="Calque_2-3" data-name="Calque 2"><g id="Calque_7" data-name="Calque 7"><text class="cls-3" transform="translate(28.78 52.31)">U</text><text class="cls-4" transform="matrix(1, 0, -0.17, 0.98, 50.17, 51.37)">X</text><text class="cls-3" transform="matrix(-1, 0, 0, 1, 43.33, 51.49)">R</text></g></g></g></g></g></svg>